<?xml version="1.0" encoding="UTF-8"?>
<svg fill="#FFFFFF" width="100pt" height="100pt" version="1.1" viewBox="0 0 100 100" xmlns="http://www.w3.org/2000/svg">
 <path transform="scale(.78125)" d="m64 2c1.06 0 2.08 0.42 2.83 1.17s1.17 1.77 1.17 2.83v116c0 1.06-0.42 2.08-1.17 2.83s-1.77 1.17-2.83 1.17" fill="none" stroke="#FFFFFF" stroke-miterlimit="10" stroke-width="4"/>
 <path transform="scale(.78125)" d="m68.34 99.74c11.75-1.42 22.05-8.525 27.555-19.005 5.5-10.48 5.5-22.99 0-33.47-5.505-10.48-15.805-17.585-27.555-19.005m0.08 22.45c5.72 1.9 9.585 7.255 9.585 13.285s-3.865 11.385-9.585 13.285" fill="none" stroke="#FFFFFF" stroke-miterlimit="10" stroke-width="4"/>
 <path transform="scale(.78125)" d="m68.3 20.21c9.615 0.935 18.645 5.02 25.7 11.62v-17.83h-25.5" fill="none" stroke="#FFFFFF" stroke-miterlimit="10" stroke-width="4"/>
 <path transform="scale(.78125)" d="m68.63 114h25.37v-17.83c-7.005 6.55-15.96 10.625-25.5 11.6" fill="none" stroke="#FFFFFF" stroke-miterlimit="10" stroke-width="4"/>
 <path transform="scale(.78125)" d="m68.29 83.54c5.985-1.315 11.035-5.295 13.71-10.805 2.67-5.515 2.67-11.945 0-17.46-2.675-5.51-7.725-9.49-13.71-10.805" fill="none" stroke="#FFFFFF" stroke-miterlimit="10" stroke-width="2.22"/>
 <path transform="scale(.78125)" d="m20 2h84c1.06 0 2.08 0.42 2.83 1.17s1.17 1.77 1.17 2.83v116c0 1.06-0.42 2.08-1.17 2.83s-1.77 1.17-2.83 1.17h-84z" fill="none" stroke="#FFFFFF" stroke-miterlimit="10" stroke-width="4"/>
 <path transform="scale(.78125)" d="m49.23 61h-10.46" fill="none" stroke="#FFFFFF" stroke-miterlimit="10" stroke-width="2"/>
 <path transform="scale(.78125)" d="m57.35 65.56v-2.24c0.02-0.695-0.22-1.375-0.67-1.91-1.295-1.49-3.155-2.365-5.13-2.41-0.415 0.025-0.82 0.16-1.16 0.4-0.58 0.4-0.87 1.21-1.16 1.21l1.69 3.39" fill="none" stroke="#FFFFFF" stroke-miterlimit="10" stroke-width="2"/>
 <path transform="scale(.78125)" d="m30.65 65.66v-2.34c-0.02-0.695 0.22-1.375 0.67-1.91 1.295-1.49 3.155-2.365 5.13-2.41 0.415 0.025 0.82 0.16 1.16 0.4 0.46 0.325 0.855 0.735 1.16 1.21l-1.77 3.55" fill="none" stroke="#FFFFFF" stroke-miterlimit="10" stroke-width="2"/>
 <path transform="scale(.78125)" d="m57.8 66.31c-0.51-0.65-2.42-2.89-4.8-3.37-0.56-0.085-1.115 0.16-1.43 0.63l-3.57 4.67c-0.275 0.39-0.715 0.63-1.19 0.65h-5.61c-0.48-0.015-0.925-0.255-1.2-0.65l-3.59-4.67c-0.31-0.465-0.86-0.71-1.41-0.63-2.38 0.47-4.29 2.72-4.8 3.37-0.085 0.11-0.16 0.225-0.22 0.35-1.47 3.06-4 13.3-4 21.6 0 5.61 1.4 7.5 2.35 8.14 0.215 0.14 0.475 0.18 0.725 0.12 0.245-0.06 0.46-0.22 0.585-0.44l4.85-6.74c0.665-0.98 1.825-1.5 3-1.34h13c1.175-0.16 2.335 0.36 3 1.34l4.85 6.74c0.125 0.22 0.34 0.38 0.585 0.44 0.25 0.06 0.51 0.02 0.725-0.12 0.95-0.64 2.35-2.53 2.35-8.14 0-8.3-2.51-18.54-4-21.6-0.055-0.125-0.12-0.24-0.2-0.35z" fill="none" stroke="#FFFFFF" stroke-miterlimit="10" stroke-width="2"/>
 <path d="m42.992 58.867c0 1.6758-1.8125 1.6758-1.8125 0 0-1.6758 1.8125-1.6758 1.8125 0"/>
 <path d="m40.953 55.719c0 1.6758-1.8125 1.6758-1.8125 0s1.8125-1.6758 1.8125 0"/>
 <path d="m45.031 55.719c0 1.6758-1.8125 1.6758-1.8125 0s1.8125-1.6758 1.8125 0"/>
 <path d="m42.992 52.57c0 1.6758-1.8125 1.6758-1.8125 0 0-1.6758 1.8125-1.6758 1.8125 0"/>
 <path d="m35.938 50.781c0 2.082-3.125 2.082-3.125 0s3.125-2.082 3.125 0"/>
 <path d="m37.094 56.031c0 1.2617-1.3594 1.2617-1.3594 0s1.3594-1.2617 1.3594 0"/>
 <path d="m33.016 56.062c0 1.293-1.3594 1.293-1.3594 0s1.3594-1.293 1.3594 0"/>
 <path d="m27.344 54.594c0.14844 0 0.78125 0.66406 0.78125 2s-0.63281 2-0.78125 2-0.78125-0.66406-0.78125-2 0.63281-2 0.78125-2m0-1.5625c-1.2969 0-2.3438 1.5625-2.3438 3.5625s1.0469 3.5625 2.3438 3.5625 2.3438-1.5625 2.3438-3.5625-1.0469-3.5625-2.3438-3.5625z"/>
 <path d="m38.281 60.938c0.27344 0 0.78125 0.59375 0.78125 1.5625s-0.50781 1.5625-0.78125 1.5625-0.78125-0.59375-0.78125-1.5625 0.50781-1.5625 0.78125-1.5625m0-1.5625c-1.2969 0-2.3438 1.3984-2.3438 3.125s1.0469 3.125 2.3438 3.125 2.3438-1.3984 2.3438-3.125-1.0469-3.125-2.3438-3.125z"/>
 <path transform="scale(.78125)" d="m33.09 15h9.91" fill="none" stroke="#FFFFFF" stroke-miterlimit="10" stroke-width="2"/>
 <path transform="scale(.78125)" d="m39 31h10" fill="none" stroke="#FFFFFF" stroke-miterlimit="10" stroke-width="2"/>
 <path transform="scale(.78125)" d="m47 15h8" fill="none" stroke="#FFFFFF" stroke-miterlimit="10" stroke-width="2"/>
 <path transform="scale(.78125)" d="m68 36h-48" fill="none" stroke="#FFFFFF" stroke-miterlimit="10" stroke-width="4"/>
 <path transform="scale(.78125)" d="m20 26h48" fill="none" stroke="#FFFFFF" stroke-miterlimit="10" stroke-width="4"/>
 <path transform="scale(.78125)" d="m68 118h-48" fill="none" stroke="#FFFFFF" stroke-miterlimit="10" stroke-width="4"/>
 <path d="m28.906 61.719h4.6875v1.5625h-4.6875z"/>
 <path d="m30.469 65.625v-6.25h1.5625v6.25z"/>
</svg>
