<?xml version="1.0" encoding="UTF-8"?>
<svg fill="#FFFFFF" width="100pt" height="100pt" version="1.1" viewBox="0 0 100 100" xmlns="http://www.w3.org/2000/svg">
 <g>
  <path d="m35.156 10.938h16.406v1.5625h-16.406z"/>
  <path d="m42.188 23.438h15.625v1.5625h-15.625z"/>
  <path d="m54.688 10.938h9.375v1.5625h-9.375z"/>
  <path d="m85.938 95.312v-90.625c0-2.5898-2.0977-4.6875-4.6875-4.6875h-67.188v100h67.188c2.5898 0 4.6875-2.0977 4.6875-4.6875zm-45.594-45.367c0.32812-0.042968 0.66016 0.0625 0.90625 0.28906l3.9062 3.6484c0.49609 0.46484 1.1484 0.72266 1.8281 0.71875h6.0625c0.67188 0.003907 1.3164-0.24219 1.8125-0.69531l3.9062-3.6484c0.24219-0.22656 0.57812-0.33203 0.90625-0.28906 1.7812 0.33594 3.4375 1.1562 4.7812 2.375 0.042969 0.039062 0.082031 0.082031 0.11719 0.13281 1.4219 2.1328 4.1875 9.8672 4.1875 16.406 0 4.0312-1.3203 5.2734-2.1094 5.6562-0.17969 0.082032-0.39453 0.042969-0.53125-0.10156l-5.2656-5.2656c-1.1797-1.1094-2.4297-1.2031-3.8203-1.2031h-14.062c-1.3906 0-2.6406 0.09375-3.8203 1.2734l-5.2656 5.2656c-0.13672 0.14453-0.35156 0.1875-0.53125 0.10156-0.78125-0.38281-2.1094-1.625-2.1094-5.6562 0-6.5703 2.7656-14.305 4.1875-16.406 0.027343-0.074219 0.066406-0.14062 0.11719-0.20312 1.3438-1.2305 3.0078-2.0586 4.7969-2.3984zm-4.0547-0.0625v-0.41406c0-0.34375 0.16016-0.66406 0.42969-0.875 1.457-1.1211 3.2461-1.7266 5.0859-1.7188 0.31641 0.015625 0.62891 0.09375 0.91406 0.23438 0.20312 0.10156 0.39844 0.21875 0.57812 0.35938l-1.0781 1.5625c-0.57812-0.50391-1.3438-0.73047-2.1016-0.625-1.3633 0.22266-2.668 0.72656-3.8281 1.4766zm7.0859 0.21094l1.1562-1.6562h10.938l1.1562 1.6562-2.8281 2.6484c-0.21094 0.19922-0.49219 0.30469-0.78125 0.29687h-6.0469c-0.28906 0.007813-0.57031-0.097656-0.78125-0.29687zm13.32-2.6094c0.17969-0.14062 0.375-0.25781 0.57813-0.35938 0.28516-0.13672 0.59766-0.21875 0.91406-0.23438 1.8398-0.015625 3.6328 0.58594 5.0938 1.7031 0.26953 0.21094 0.42969 0.53125 0.42969 0.875v0.41406c-1.1602-0.75391-2.4648-1.2578-3.8281-1.4844-0.75781-0.10547-1.5234 0.12109-2.1016 0.625zm-39.508-19.359v-6.25h65.625v6.25zm64.062-25c0.41406 0 0.8125 0.16406 1.1055 0.45703s0.45703 0.69141 0.45703 1.1055v14.062h-65.625v-15.625zm-64.062 89.062h65.625v3.125c0 0.41406-0.16406 0.8125-0.45703 1.1055s-0.69141 0.45703-1.1055 0.45703h-64.062z"/>
  <path d="m41.406 63.281h2.3438v2.3438h1.5625v-2.3438h2.3438v-1.5625h-2.3438v-2.3438h-1.5625v2.3438h-2.3438z"/>
  <path d="m38.977 59.18c1.4023 0 2.668-0.84375 3.2031-2.1406 0.53906-1.2969 0.24219-2.7891-0.75-3.7812-0.99219-0.99219-2.4844-1.2891-3.7812-0.75-1.2969 0.53516-2.1406 1.8008-2.1406 3.2031 0 1.9141 1.5547 3.4688 3.4688 3.4688zm0-5.3672c0.76953 0 1.4648 0.46484 1.7617 1.1758 0.29297 0.71484 0.13281 1.5352-0.41406 2.0781-0.54297 0.54688-1.3633 0.70703-2.0781 0.41406-0.71094-0.29688-1.1758-0.99219-1.1758-1.7617 0-1.0547 0.85156-1.9062 1.9062-1.9062z"/>
  <path d="m51.578 50.992c0 2.1055-3.1562 2.1055-3.1562 0 0-2.1055 3.1562-2.1055 3.1562 0"/>
  <path d="m46.875 56.25h1.5625v1.5625h-1.5625z"/>
  <path d="m61.969 52.57c0 1.6758-2.5156 1.6758-2.5156 0 0-1.6758 2.5156-1.6758 2.5156 0"/>
  <path d="m64.805 55.719c0 1.6758-2.5156 1.6758-2.5156 0s2.5156-1.6758 2.5156 0"/>
  <path d="m59.133 55.719c0 1.6758-2.5156 1.6758-2.5156 0s2.5156-1.6758 2.5156 0"/>
  <path d="m61.969 58.867c0 1.6758-2.5156 1.6758-2.5156 0 0-1.6758 2.5156-1.6758 2.5156 0"/>
  <path d="m51.891 62.648c0 1.4023 0.84375 2.668 2.1406 3.2031 1.2969 0.53906 2.7891 0.24219 3.7812-0.75 0.99219-0.99219 1.2891-2.4844 0.75-3.7812-0.53516-1.2969-1.8008-2.1406-3.2031-2.1406-1.9141 0-3.4688 1.5547-3.4688 3.4688zm3.4688-1.9062c0.76953 0 1.4648 0.46484 1.7617 1.1758 0.29297 0.71484 0.13281 1.5352-0.41406 2.0781-0.54297 0.54688-1.3633 0.70703-2.0781 0.41406-0.71094-0.29688-1.1758-0.99219-1.1758-1.7617 0-1.0508 0.84766-1.9023 1.8984-1.9062z"/>
  <path d="m51.562 56.25h1.5625v1.5625h-1.5625z"/>
 </g>
</svg>
