<?xml version="1.0" encoding="UTF-8"?>
<svg fill="#FFFFFF" width="100pt" height="100pt" version="1.1" viewBox="0 0 100 100" xmlns="http://www.w3.org/2000/svg">
 <g>
  <path d="m81.25 0h-67.188v100h67.188c2.5898 0 4.6875-2.0977 4.6875-4.6875v-90.625c0-2.5898-2.0977-4.6875-4.6875-4.6875zm-21.875 50c0 3.3477-1.7891 6.4414-4.6875 8.1172v-16.234c2.8984 1.6758 4.6875 4.7695 4.6875 8.1172zm-4.6875 14.062c3.9453-1.332 7.1523-4.2656 8.832-8.0781 1.6797-3.8125 1.6797-8.1562 0-11.969-1.6797-3.8125-4.8867-6.7461-8.832-8.0781v-1.6406c4.543 1.3594 8.2734 4.6133 10.234 8.9297 1.9609 4.3125 1.9609 9.2656 0 13.578-1.9609 4.3164-5.6914 7.5703-10.234 8.9297zm0 21.539c6.2578-0.79687 12.191-3.2461 17.188-7.1016v9h-17.188zm0-73.102h17.188v8.9922c-4.9961-3.8555-10.93-6.3047-17.188-7.1016zm-37.5 84.375v-93.75h32.812c0.41406 0 0.8125 0.16406 1.1055 0.45703s0.45703 0.69141 0.45703 1.1055v90.625c0 0.41406-0.16406 0.8125-0.45703 1.1055s-0.69141 0.45703-1.1055 0.45703zm65.625-1.5625c0 0.41406-0.16406 0.8125-0.45703 1.1055s-0.69141 0.45703-1.1055 0.45703h-26.836c0.17969-0.5 0.27344-1.0312 0.27344-1.5625v-4.6875h20.312v-19.086l-2.625 2.4531c-4.8789 4.582-11.059 7.5469-17.688 8.4844v-3.1641c9.3398-1.5312 17.395-7.4258 21.676-15.867 4.2812-8.4414 4.2812-18.418 0-26.859-4.2812-8.4414-12.336-14.336-21.676-15.867v-3.125c6.6211 0.91797 12.797 3.8555 17.688 8.4141l2.625 2.4531v-19.086h-20.312v-4.6875c0-0.53125-0.09375-1.0625-0.27344-1.5625h26.836c0.41406 0 0.8125 0.16406 1.1055 0.45703s0.45703 0.69141 0.45703 1.1055z"/>
  <path d="m28.125 5.4688h12.5v1.5625h-12.5z"/>
 </g>
</svg>
