<?xml version="1.0" encoding="UTF-8"?>
<svg fill="#FFFFFF" width="100pt" height="100pt" version="1.1" viewBox="0 0 100 100" xmlns="http://www.w3.org/2000/svg">
 <g>
  <path d="m28.125 5.4688h12.5v1.5625h-12.5z"/>
  <path d="m25 6.25c0 2.082-3.125 2.082-3.125 0s3.125-2.082 3.125 0"/>
  <path d="m81.25 0h-67.188v100h67.188c2.5898 0 4.6875-2.0977 4.6875-4.6875v-90.625c0-2.5898-2.0977-4.6875-4.6875-4.6875zm-26.562 41.883c2.8984 1.6758 4.6836 4.7695 4.6836 8.1172s-1.7852 6.4414-4.6836 8.1172zm0 19.703c4.7188-1.9102 7.8086-6.4961 7.8086-11.586s-3.0898-9.6758-7.8086-11.586v-2.3984c3.9336 1.3203 7.1289 4.2344 8.8047 8.0273 1.6719 3.793 1.6719 8.1211 0 11.914-1.6758 3.793-4.8711 6.707-8.8047 8.0273zm0 24.031c6.2578-0.79688 12.191-3.2461 17.188-7.1016v8.9844h-17.188zm0-19.805c4.5781-1.3516 8.3477-4.625 10.328-8.9688s1.9805-9.3359 0-13.68-5.75-7.6172-10.328-8.9688v-10.344c8.2422 1.4805 15.305 6.7617 19.055 14.246 3.75 7.4883 3.75 16.309 0 23.797-3.75 7.4844-10.812 12.766-19.055 14.246zm0-53.312h17.188v8.9922c-4.9961-3.8555-10.93-6.3047-17.188-7.1016zm-37.5 84.375v-93.75h32.812c0.41406 0 0.8125 0.16406 1.1055 0.45703s0.45703 0.69141 0.45703 1.1055v90.625c0 0.41406-0.16406 0.8125-0.45703 1.1055s-0.69141 0.45703-1.1055 0.45703zm65.625-1.5625c0 0.41406-0.16406 0.8125-0.45703 1.1055s-0.69141 0.45703-1.1055 0.45703h-26.836c0.17969-0.5 0.27344-1.0312 0.27344-1.5625v-4.6875h20.312v-19.086l-2.625 2.4531c-4.8789 4.582-11.059 7.5469-17.688 8.4844v-3.1641c9.3398-1.5312 17.395-7.4258 21.676-15.867 4.2812-8.4414 4.2812-18.418 0-26.859-4.2812-8.4414-12.336-14.336-21.676-15.867v-3.125c6.6211 0.91797 12.797 3.8555 17.688 8.4141l2.625 2.4531v-19.086h-20.312v-4.6875c0-0.53125-0.09375-1.0625-0.27344-1.5625h26.836c0.41406 0 0.8125 0.16406 1.1055 0.45703s0.45703 0.69141 0.45703 1.1055z"/>
 </g>
</svg>
