<?xml version="1.0" encoding="UTF-8"?>
<svg fill="#FFFFFF" width="100pt" height="100pt" version="1.1" viewBox="0 0 100 100" xmlns="http://www.w3.org/2000/svg">
 <g>
  <path d="m50 20.312c-7.875 0-15.426 3.1289-20.992 8.6953-5.5664 5.5664-8.6953 13.117-8.6953 20.992s3.1289 15.426 8.6953 20.992c5.5664 5.5664 13.117 8.6953 20.992 8.6953s15.426-3.1289 20.992-8.6953c5.5664-5.5664 8.6953-13.117 8.6953-20.992s-3.1289-15.426-8.6953-20.992c-5.5664-5.5664-13.117-8.6953-20.992-8.6953zm0 56.25c-7.043 0-13.801-2.7969-18.781-7.7812-4.9844-4.9805-7.7812-11.738-7.7812-18.781s2.7969-13.801 7.7812-18.781c4.9805-4.9844 11.738-7.7812 18.781-7.7812s13.801 2.7969 18.781 7.7812c4.9844 4.9805 7.7812 11.738 7.7812 18.781s-2.7969 13.801-7.7812 18.781c-4.9805 4.9844-11.738 7.7812-18.781 7.7812z"/>
  <path d="m50 37.5c-5.0547 0-9.6133 3.0469-11.547 7.7148-1.9375 4.6719-0.86719 10.051 2.707 13.625 3.5742 3.5742 8.9531 4.6445 13.625 2.707 4.668-1.9336 7.7148-6.4922 7.7148-11.547 0-3.3164-1.3164-6.4961-3.6602-8.8398s-5.5234-3.6602-8.8398-3.6602zm0 21.875c-3.793 0-7.2109-2.2852-8.6602-5.7891-1.4531-3.5-0.64844-7.5352 2.0312-10.215 2.6797-2.6797 6.7148-3.4844 10.215-2.0312 3.5039 1.4492 5.7891 4.8672 5.7891 8.6602 0 5.1758-4.1992 9.375-9.375 9.375z"/>
  <path d="m50 17.188c8.3086-0.007812 16.309 3.1445 22.375 8.8203l2.625 2.4531v-19.086h-50v19.086l2.625-2.4531c6.0664-5.6758 14.066-8.8281 22.375-8.8203zm21.875 4.3047c-5.8438-4.5117-12.938-7.1094-20.312-7.4297v-1.5625h20.312zm-43.75-8.9922h20.312v1.5625c-7.3711 0.3125-14.469 2.8945-20.312 7.3984z"/>
  <path d="m50 82.812c-8.3086 0.007812-16.309-3.1445-22.375-8.8203l-2.625-2.4531v19.086h50v-19.086l-2.625 2.4531c-6.0664 5.6758-14.066 8.8281-22.375 8.8203zm-21.875-4.3047c5.8398 4.5117 12.938 7.1094 20.312 7.4297v1.5625h-20.312zm43.75 8.9922h-20.312v-1.5625c7.3711-0.3125 14.469-2.8945 20.312-7.3984z"/>
  <path d="m50 42.188c-3.1602 0-6.0078 1.9023-7.2188 4.8242-1.207 2.918-0.53906 6.2773 1.6953 8.5117 2.2344 2.2344 5.5938 2.9023 8.5117 1.6953 2.9219-1.2109 4.8242-4.0586 4.8242-7.2188 0-2.0703-0.82422-4.0586-2.2891-5.5234-1.4648-1.4648-3.4531-2.2891-5.5234-2.2891zm0 12.5c-1.8945 0-3.6055-1.1406-4.332-2.8945-0.72266-1.75-0.32422-3.7656 1.0156-5.1094 1.3438-1.3398 3.3594-1.7383 5.1094-1.0156 1.7539 0.72656 2.8945 2.4375 2.8945 4.332 0 2.5898-2.0977 4.6875-4.6875 4.6875z"/>
  <path d="m51.562 46.875h-3.125v1.5625h-1.5625v3.125h1.5625v1.5625h3.125v-1.5625h1.5625v-3.125h-1.5625z"/>
  <path d="m50 33.508c-4.375 0-8.5703 1.7383-11.66 4.832-3.0938 3.0898-4.832 7.2852-4.832 11.66s1.7383 8.5703 4.832 11.66c3.0898 3.0938 7.2852 4.832 11.66 4.832s8.5703-1.7383 11.66-4.832c3.0938-3.0898 4.832-7.2852 4.832-11.66-0.007813-4.3711-1.7461-8.5625-4.8359-11.656-3.0938-3.0898-7.2852-4.8281-11.656-4.8359zm0 31.25c-3.9141 0-7.668-1.5547-10.434-4.3242-2.7695-2.7656-4.3242-6.5195-4.3242-10.434s1.5547-7.668 4.3242-10.434c2.7656-2.7695 6.5195-4.3242 10.434-4.3242s7.668 1.5547 10.434 4.3242c2.7695 2.7656 4.3242 6.5195 4.3242 10.434-0.003906 3.9141-1.5586 7.6641-4.3281 10.43-2.7656 2.7695-6.5156 4.3242-10.43 4.3281z"/>
  <path d="m43.75 5.4688h18.75v1.5625h-18.75z"/>
  <path d="m40.625 6.25c0 2.082-3.125 2.082-3.125 0s3.125-2.082 3.125 0"/>
  <path d="m85.938 95.312v-90.625c0-2.5898-2.0977-4.6875-4.6875-4.6875h-67.188v100h67.188c2.5898 0 4.6875-2.0977 4.6875-4.6875zm-68.75-92.188h64.062c0.41406 0 0.8125 0.16406 1.1055 0.45703s0.45703 0.69141 0.45703 1.1055v90.625c0 0.41406-0.16406 0.8125-0.45703 1.1055s-0.69141 0.45703-1.1055 0.45703h-64.062z"/>
 </g>
</svg>
