<?xml version="1.0" encoding="UTF-8"?>
<svg fill="#FFFFFF" width="100pt" height="100pt" version="1.1" viewBox="0 0 100 100" xmlns="http://www.w3.org/2000/svg">
 <g>
  <path d="m81.25 100c2.5898 0 4.6875-2.0977 4.6875-4.6875v-90.625c0-2.5898-2.0977-4.6875-4.6875-4.6875h-67.188v100zm-38.281-89.062v1.5625h-6.25v-1.5625zm-17.117 0h7.7422v1.5625h-7.7422zm28.836 23.344c4.543 1.3594 8.2734 4.6133 10.234 8.9297 1.9609 4.3125 1.9609 9.2656 0 13.578-1.9609 4.3164-5.6914 7.5703-10.234 8.9297v-1.6562c3.9453-1.332 7.1523-4.2656 8.832-8.0781 1.6797-3.8125 1.6797-8.1562 0-11.969-1.6797-3.8125-4.8867-6.7461-8.832-8.0781zm4.6875 15.719c0 3.3477-1.7891 6.4414-4.6875 8.1172v-16.234c2.8984 1.6758 4.6875 4.7695 4.6875 8.1172zm-4.6875 35.609c6.2578-0.79688 12.191-3.25 17.188-7.1016v8.9922h-17.188zm0-73.109h17.188v8.9922c-4.9961-3.8555-10.93-6.3047-17.188-7.1016zm-3.125 9.375v4.6875h-34.375v-4.6875zm0 7.8125v60.938h-34.375v-60.938zm31.25-25v90.625c0 0.41406-0.16406 0.8125-0.45703 1.1055s-0.69141 0.45703-1.1055 0.45703h-26.836c0.17969-0.5 0.27344-1.0312 0.27344-1.5625v-4.6875h20.312v-19.086l-2.625 2.4531c-4.8789 4.582-11.059 7.5469-17.688 8.4844v-3.1641c9.3398-1.5312 17.395-7.4258 21.676-15.867 4.2812-8.4414 4.2812-18.418 0-26.859-4.2812-8.4414-12.336-14.336-21.676-15.867v-3.125c6.6211 0.91797 12.797 3.8555 17.688 8.4141l2.625 2.4531v-19.086h-20.312v-4.6875c0-0.53125-0.09375-1.0625-0.27344-1.5625h26.836c0.41406 0 0.8125 0.16406 1.1055 0.45703s0.45703 0.69141 0.45703 1.1055z"/>
  <path d="m30.469 23.438h7.8125v1.5625h-7.8125z"/>
  <path d="m21.711 75.953c0.33594 0.22266 0.74609 0.30078 1.1406 0.21484 0.39453-0.082031 0.73828-0.32031 0.95313-0.66016l3.7891-5.2656c0.46875-0.65625 0.86719-0.71875 1.7188-0.71875h10.156c0.85156 0 1.2422 0.0625 1.7188 0.71875l3.7891 5.2656c0.28516 0.42969 0.76563 0.6875 1.2812 0.69531 0.28125-0.007813 0.55078-0.097656 0.78125-0.25781 0.99219-0.67187 2.1797-2.4297 2.1797-7.0312 0-6.3516-1.9141-14.57-3.1875-17.188-0.070312-0.14844-0.15625-0.28516-0.25781-0.41406l-0.17969-0.22656v-1.6172c0.015625-0.74219-0.24609-1.4648-0.73438-2.0234-1.1641-1.3203-2.8281-2.0938-4.5859-2.1328-0.48438 0.015625-0.95313 0.17578-1.3516 0.45312-0.42188 0.30078-0.78125 0.67578-1.0625 1.1094h-6.9688c-0.28516-0.42578-0.64453-0.79297-1.0625-1.0859-0.39453-0.28906-0.86328-0.45312-1.3516-0.47656-1.7539 0.035156-3.418 0.80078-4.5859 2.1094-0.48828 0.55859-0.75 1.2812-0.73438 2.0234v1.6484l-0.17969 0.22656c-0.10156 0.12891-0.1875 0.27344-0.25781 0.42188-1.2656 2.6484-3.1875 10.859-3.1875 17.188 0 4.5938 1.1875 6.3516 2.1797 7.0234zm18.133-28.883c0.13672-0.09375 0.29688-0.15234 0.46094-0.17187 1.3203 0.027343 2.5703 0.61328 3.4375 1.6094 0.21875 0.27344 0.33203 0.61328 0.32031 0.96094v0.13281c-0.73438-0.57422-1.5898-0.97266-2.5-1.1641-0.53516-0.10156-1.0898 0.046875-1.5078 0.39844l-0.67969-1.3438c0.13672-0.16016 0.29297-0.30469 0.46875-0.42188zm-9.2188 1.3672h7.4922l0.84375 1.6797-2.0938 2.7266c-0.070313 0.10938-0.18359 0.18359-0.3125 0.20312h-4.3594c-0.12891-0.019531-0.24219-0.09375-0.3125-0.20312l-2.0938-2.7266zm-5.5859 0.070312c0.85938-1 2.1016-1.5938 3.4219-1.6328 0.17187 0.015625 0.33594 0.074219 0.47656 0.17188 0.16016 0.10938 0.30859 0.24219 0.4375 0.39062l-0.67969 1.3438c-0.42578-0.33594-0.98047-0.46094-1.5078-0.34375-0.51953 0.10938-1.0195 0.29688-1.4844 0.55469-0.34375 0.19141-0.66797 0.40625-0.97656 0.64844v-0.13281c-0.023437-0.35937 0.089844-0.71484 0.3125-1zm-0.91406 3.9062c0.019531-0.042968 0.046875-0.085937 0.078125-0.125 0.26562-0.33594 1.6562-2.0234 3.2891-2.3438 0.14062 0 0.27344 0.15625 0.3125 0.21094l2.8047 3.6484c0.37109 0.48828 0.94922 0.77734 1.5625 0.78125h4.3672c0.61328-0.003907 1.1914-0.29297 1.5625-0.78125l2.8047-3.6484c0.039062-0.054688 0.19531-0.23438 0.34375-0.20312 0.20703 0.042969 0.40625 0.10156 0.60156 0.17969 1.0469 0.49609 1.9648 1.2344 2.6797 2.1484 0.03125 0.039062 0.058594 0.082031 0.078125 0.125 1.0469 2.1484 3.0469 9.9297 3.0469 16.539 0 4.0703-0.95312 5.3047-1.4297 5.6719l-3.8047-5.2812c-0.67188-0.96875-1.8164-1.4922-2.9844-1.3672h-10.156c-1.168-0.125-2.3125 0.39844-2.9844 1.3672l-3.7891 5.2656c-0.47656-0.35937-1.4297-1.5625-1.4297-5.6719 0.015625-6.5938 2.0156-14.375 3.0469-16.516z"/>
  <path d="m42.992 58.867c0 1.6758-1.8125 1.6758-1.8125 0 0-1.6758 1.8125-1.6758 1.8125 0"/>
  <path d="m40.953 55.719c0 1.6758-1.8125 1.6758-1.8125 0s1.8125-1.6758 1.8125 0"/>
  <path d="m45.031 55.719c0 1.6758-1.8125 1.6758-1.8125 0s1.8125-1.6758 1.8125 0"/>
  <path d="m42.992 52.57c0 1.6758-1.8125 1.6758-1.8125 0 0-1.6758 1.8125-1.6758 1.8125 0"/>
  <path d="m35.938 50.781c0 2.082-3.125 2.082-3.125 0s3.125-2.082 3.125 0"/>
  <path d="m37.094 56.031c0 1.2617-1.3594 1.2617-1.3594 0s1.3594-1.2617 1.3594 0"/>
  <path d="m33.016 56.062c0 1.293-1.3594 1.293-1.3594 0s1.3594-1.293 1.3594 0"/>
  <path d="m27.344 60.156c1.2969 0 2.3438-1.5625 2.3438-3.5625s-1.0469-3.5625-2.3438-3.5625-2.3438 1.5625-2.3438 3.5625 1.0469 3.5625 2.3438 3.5625zm0-5.5625c0.14844 0 0.78125 0.66406 0.78125 2s-0.63281 2-0.78125 2-0.78125-0.66406-0.78125-2 0.63281-2 0.78125-2z"/>
  <path d="m35.938 62.5c0 1.7266 1.0469 3.125 2.3438 3.125s2.3438-1.3984 2.3438-3.125-1.0469-3.125-2.3438-3.125-2.3438 1.3984-2.3438 3.125zm2.3438-1.5625c0.27344 0 0.78125 0.59375 0.78125 1.5625s-0.50781 1.5625-0.78125 1.5625-0.78125-0.59375-0.78125-1.5625 0.50781-1.5625 0.78125-1.5625z"/>
  <path d="m28.906 61.719v1.5625h1.5625v2.3438h1.5625v-2.3438h1.5625v-1.5625h-1.5625v-2.3438h-1.5625v2.3438z"/>
 </g>
</svg>
