<?xml version="1.0" encoding="UTF-8"?>
<svg fill="#FFFFFF" width="100pt" height="100pt" version="1.1" viewBox="0 0 100 100" xmlns="http://www.w3.org/2000/svg">
 <g>
  <path d="m65.867 51.641c-0.10156-0.15234-0.22266-0.29297-0.35938-0.41406l-0.23437-0.20312v-1.5625c0.003906-0.82422-0.37891-1.6055-1.0312-2.1094-1.7344-1.332-3.8672-2.0508-6.0547-2.0391-0.55859 0.015625-1.1094 0.15234-1.6094 0.39844-0.54688 0.27344-1.043 0.64453-1.4609 1.0938l-0.054688 0.054687h-10.156l-0.054688-0.054687c-0.41797-0.44922-0.91406-0.82031-1.4609-1.0938-0.49219-0.24219-1.0312-0.37891-1.5781-0.39844-2.1836-0.015625-4.3125 0.69531-6.0469 2.0234-0.65234 0.50391-1.0352 1.2852-1.0312 2.1094v1.5625l-0.23438 0.20313c-0.13672 0.12109-0.25781 0.26172-0.35938 0.41406-1.7734 2.6719-4.4531 10.93-4.4531 17.32 0 4.6406 1.625 6.3984 2.9844 7.0312 0.78516 0.38672 1.7305 0.22656 2.3438-0.39844l5.2422-5.2656c0.70313-0.70312 1.375-0.78125 2.7109-0.78125h14.062c1.3359 0 2.0078 0.11719 2.7109 0.78125l5.2656 5.2656c0.38281 0.38281 0.90234 0.60156 1.4453 0.60156 0.30078 0 0.59766-0.070313 0.86719-0.20313 1.3594-0.66406 2.9844-2.4219 2.9844-7.0312 0.007812-6.3906-2.6719-14.648-4.4375-17.305zm-8.5938-4.5078c0.28516-0.13672 0.59766-0.21875 0.91406-0.23437 1.8398-0.015626 3.6328 0.58203 5.0938 1.6953 0.26953 0.21094 0.42969 0.53125 0.42969 0.875v0.41406c-1.1602-0.75391-2.4648-1.2578-3.8281-1.4844-0.75781-0.10547-1.5234 0.12109-2.1016 0.625l-1.0781-1.5625c0.17969-0.12891 0.375-0.23828 0.57812-0.32813zm-12.742 1.3047h10.938l1.1562 1.6562-2.8281 2.6484c-0.21094 0.19922-0.49219 0.30469-0.78125 0.29687h-6.0469c-0.28906 0.007813-0.57031-0.097656-0.78125-0.29687l-2.8281-2.6484zm-8.2422 1.0312c0-0.34375 0.16016-0.66406 0.42969-0.875 1.457-1.1211 3.2461-1.7266 5.0859-1.7188 0.31641 0.015625 0.62891 0.09375 0.91406 0.23438 0.20312 0.10156 0.39844 0.21875 0.57812 0.35938l-1.0781 1.5625c-0.57812-0.50391-1.3438-0.73047-2.1016-0.625-1.3633 0.22656-2.668 0.73047-3.8281 1.4844zm30.352 25.141c-0.17969 0.085937-0.39453 0.042969-0.53125-0.10156l-5.2656-5.2656c-1.1719-1.1797-2.4219-1.2734-3.8125-1.2734h-14.062c-1.3906 0-2.6406 0.09375-3.8203 1.2734l-5.2656 5.2656c-0.13672 0.14453-0.35156 0.18359-0.53125 0.10156-0.78125-0.38281-2.1094-1.625-2.1094-5.6562 0-6.5703 2.7656-14.305 4.1875-16.406 0.027343-0.074219 0.066406-0.14062 0.11719-0.20312 1.3398-1.2422 2.9961-2.0859 4.7891-2.4375 0.32812-0.042969 0.66406 0.0625 0.90625 0.28906l3.9062 3.6484c0.49609 0.46484 1.1484 0.72266 1.8281 0.71875h6.0625c0.66797 0.015625 1.3164-0.21875 1.8203-0.65625l3.9062-3.6484c0.24219-0.22656 0.57812-0.33203 0.90625-0.28906 1.7812 0.33594 3.4375 1.1562 4.7812 2.375 0.042969 0.039062 0.082031 0.082031 0.11719 0.13281 1.4219 2.1328 4.1875 9.8672 4.1875 16.406-0.007812 4.0938-1.3281 5.3359-2.1172 5.7266z"/>
  <path d="m61.969 58.867c0 1.6758-2.5156 1.6758-2.5156 0 0-1.6758 2.5156-1.6758 2.5156 0"/>
  <path d="m59.133 55.719c0 1.6758-2.5156 1.6758-2.5156 0s2.5156-1.6758 2.5156 0"/>
  <path d="m64.805 55.719c0 1.6758-2.5156 1.6758-2.5156 0s2.5156-1.6758 2.5156 0"/>
  <path d="m61.969 52.57c0 1.6758-2.5156 1.6758-2.5156 0 0-1.6758 2.5156-1.6758 2.5156 0"/>
  <path d="m51.578 50.992c0 2.1055-3.1562 2.1055-3.1562 0 0-2.1055 3.1562-2.1055 3.1562 0"/>
  <path d="m42.438 55.719c0-1.4023-0.84375-2.668-2.1406-3.2031-1.2969-0.53906-2.7891-0.24219-3.7812 0.75s-1.2891 2.4844-0.75 3.7812c0.53516 1.2969 1.8008 2.1406 3.2031 2.1406 1.9141 0 3.4688-1.5547 3.4688-3.4688zm-3.4688 1.9062c-0.76953 0-1.4648-0.46484-1.7617-1.1758-0.29297-0.71484-0.13281-1.5352 0.41406-2.0781 0.54297-0.54688 1.3633-0.70703 2.0781-0.41406 0.71094 0.29688 1.1758 0.99219 1.1758 1.7617-0.003906 1.0469-0.85156 1.8945-1.8984 1.8984z"/>
  <path d="m55.352 59.18c-1.4023 0-2.668 0.84375-3.2031 2.1406-0.53906 1.2969-0.24219 2.7891 0.75 3.7812 0.99219 0.99219 2.4844 1.2891 3.7812 0.75 1.2969-0.53516 2.1406-1.8008 2.1406-3.2031 0-1.9141-1.5547-3.4688-3.4688-3.4688zm0 5.3672c-0.76953 0-1.4648-0.46484-1.7617-1.1758-0.29297-0.71484-0.13281-1.5352 0.41406-2.0781 0.54297-0.54688 1.3633-0.70703 2.0781-0.41406 0.71094 0.29688 1.1758 0.99219 1.1758 1.7617 0 1.0547-0.85156 1.9062-1.9062 1.9062z"/>
  <path d="m42.188 23.438h15.625v1.5625h-15.625z"/>
  <path d="m81.25 0h-67.188v100h67.188c2.5898 0 4.6875-2.0977 4.6875-4.6875v-90.625c0-2.5898-2.0977-4.6875-4.6875-4.6875zm-64.062 90.625v-60.938h65.625v60.938zm0-64.062v-4.6875h65.625v4.6875zm46.875-15.625v1.5625h-9.375v-1.5625zm-28.906 0h16.406v1.5625h-16.406z"/>
  <path d="m46.875 56.25h1.5625v1.5625h-1.5625z"/>
  <path d="m51.562 56.25h1.5625v1.5625h-1.5625z"/>
  <path d="m45.312 59.375h-1.5625v2.3438h-2.3438v1.5625h2.3438v2.3438h1.5625v-2.3438h2.3438v-1.5625h-2.3438z"/>
 </g>
</svg>
