<?xml version="1.0" encoding="UTF-8"?>
<svg fill="#EBEBEB" width="100pt" height="100pt" version="1.1" viewBox="0 0 100 100" xmlns="http://www.w3.org/2000/svg">
 <g>
  <path d="m93.293 47v-10.152h-4.1914v10.152h-14.469v4.1914h18.668v-4.1914z"/>
  <path d="m93.301 51.191h4.1992v10.074h-4.1992z"/>
  <path d="m45.598 90.027h35.117v4.1953h-35.117z"/>
  <path d="m79.621 23.738h-4.3438v4.1992h4.3438v-4.168h4.1914v-12.352h-4.1836v-5.6406h-11.684v5.6406h11.676z"/>
  <path d="m74.633 65.531h14.469v10.16h4.1992v-14.352h-18.668z"/>
  <path d="m70.441 79.879h14.477v5.0742h4.1836v-9.2617h-18.66z"/>
  <path d="m80.719 84.953h4.1992v5.0742h-4.1992z"/>
  <path d="m75.176 32.648v-4.7109h-4.1992v4.7109h-13.332v4.1992h31.457v-4.1992z"/>
  <path d="m40.672 28.223h9.8711v4.1875h-9.8711z"/>
  <path d="m30.801 32.41h9.875v4.2031h-9.875z"/>
  <path d="m30.801 85.828h14.801v4.1953h-14.801z"/>
  <path d="m22 81.641v-40.836h8.8008v-4.1875h-8.8008v-1.9648h-19.5v52.539h19.5v-1.3594l8.8008-0.003906v-4.1914zm-10.258-36.945c-1.5156 0-2.7422-1.2344-2.7422-2.7461 0-1.5156 1.2266-2.7422 2.7422-2.7422 1.5156 0 2.7422 1.2266 2.7422 2.7422s-1.2227 2.7461-2.7422 2.7461z"/>
  <path d="m50.543 24.02h4.3516v4.2031h-4.3516z"/>
  <path d="m54.895 19.82h4.3516v4.1992h-4.3516z"/>
  <path d="m59.242 15.625h4.3516v4.1953h-4.3516z"/>
  <path d="m63.594 11.418h4.3516v4.207h-4.3516z"/>
 </g>
</svg>
