<svg id="Ebene_1" data-name="Ebene 1" xmlns="http://www.w3.org/2000/svg" xmlns:xlink="http://www.w3.org/1999/xlink" viewBox="0 0 167.54785 16.41797"><defs><style>.cls-1{fill:url(#Unbenannter_Verlauf_99);}</style><linearGradient id="Unbenannter_Verlauf_99" y1="8.20898" x2="167.54785" y2="8.20898" gradientUnits="userSpaceOnUse"><stop offset="0" stop-color="#2bd1fc"/><stop offset="1" stop-color="#ff3083"/></linearGradient></defs><title>favourite-game</title><path class="cls-1" d="M15.54785.68555q0,.13184.58887.334,0,.30762.41308.41309v.08789l-.0791.0791V1.6875q.3252,0,.3252.167l-.0791.0791q.39551,0,.99316.835,0,.334-8.48144,1.16016-.84375,0-1.08106,1.32715-.10547,0-.49219,1.24805h.07911l2.1621-.15821q.37794.49219.58008.49219v.42188l.167.24609V7.585h-.24609v.08789h.0791l.501-.08789.501.167v.08789l-.0879.07911v.08789q.501.10546.501.24609-1.002.7998-5.81836,1.749-2.751,5.37012-3.24316,6.07325-.668,0-.668.24609H2.083l-.25489-.167.0879-.0791v-.334H1.749q0,.24609-.167.24609-.08789-.41309-.42187-.41308v.0791q-.05274.42188-.2461.42188L.835,15.9873H.74707l-.167.167-.334-.41309A.22148.22148,0,0,1,0,15.48633Q0,13.99218,2.5752,9,5.07129,4.00782,5.07129,2.10059,5.73047.93164,6.31934.93164l1.33593.334A62.24418,62.24418,0,0,1,15.54785.68555Z"/><path class="cls-1" d="M21.07178.7998q2.11816,0,2.59277,1.25684.27246,1.11621.65918,4.42969l.0791.0791q.04395.51855.21973.51855l2.36426-.29882v.14941h.0791l1.17773-.07031v.14062l-.51855.14942v.0791h.51855l.51856-.0791v.14941a3.48964,3.48964,0,0,1-1.17774.29883V7.752l.36914-.0791q.50977.14941.50977.29883l.37793-.0791q1.47655.04395,1.47656.29883l-.0791.07031.51855.14941v.14942a14.28368,14.28368,0,0,1-4.13964.88769L25.29053,9.668a25.64445,25.64445,0,0,1,.958,5.10644v.29l-.21973.22852h-.0791a.7932.7932,0,0,1-.50977-.22852V15.293h-.14941v-.14942L25.062,15.293l-.29-.22852-.73828.29883-.59765-.58887a21.16312,21.16312,0,0,1-1.10743-4.36816H22.2583q-4.6582,1.28321-4.6582,2.00391a14.55165,14.55165,0,0,0-1.77539,2.28515q-.50978.59766-.81739.59766l-.14941-.36914-.07031.07031h-.07031q-.44825-.26367-.44825-.58887l-.07031.07032h-.14941v-.14942q-.30762,0-.58887-.43945-.29883,0-.29883-.14942v-.51855q0-.82617,1.77539-2.7334.75587-1.25683,2.44336-3.48047L19.894,2.5752l.50977-1.48536A1.22013,1.22013,0,0,1,21.07178.7998Zm-.58887,7.17188V8.042q1.25683-.32519,1.25684-.43945L21.52,6.416A6.18135,6.18135,0,0,0,20.48291,7.97168Zm6.873-1.25684h.14941v.14942H27.356Zm.0791.51856v.07031h.14941V7.2334Z"/><path class="cls-1" d="M41.563.334l.167.42188h.08789L41.897.668h.08789l.0791.08789-.0791.0791V.92285l.167.167a30.02947,30.02947,0,0,1-3.35743,4.27149,81.596,81.596,0,0,0-6.11718,8.63086q-.36036,1.33593-1.169,1.33593h-.334a3.21408,3.21408,0,0,1-2.43457-1.081l.167-.75586L27.14893,4.27148,26.481,1.169V1.08984a1.19749,1.19749,0,0,1,1.002-.668,3.50186,3.50186,0,0,1,2.17969.835,2.51194,2.51194,0,0,1,.84375,2.17968q.10546.02637,1.00195,6.0293h.08789L33.6001,6.87305A2.474,2.474,0,0,0,34.523,5.69531h.08789l.0791.08789h.08789l.75586-.75586.0791.07911V5.02734l-.0791-.25488.2461-.167h.08789l.0791.42187.167-.167-.0791-.334h.0791l-.0791-.25489a1.16241,1.16241,0,0,1,.501-.668h.0879l.0791.0791h.08789l.167-.167v.167l-.08789.08789v.0791h.08789l.92285-1.169h.0791v.07911l-.58886.75585v.501l.92285-1.002.08789.08789h.0791v-.167h.08789l-.167-.42188.0791-.08789h.08789l.0791.08789h.08789l.835-.668.08789.0791v.0879l-.42187.41308v.08789h.167Q41.2378.36035,41.563.334Z"/><path class="cls-1" d="M51.34961.43066h.08789q.835,0,1.6875,1.6084l.08789.08789v.39551q0,.37792-1.26562.65039V3.252a7.37951,7.37951,0,0,1,1.94238,4.50879V8.165q0,5.20313-4.48242,6.68848a10.3,10.3,0,0,1-2.53125.40429h-.93164q-3.9375,0-5.66895-4.02539-.24609-.05273-.334-1.45019V9.21094q0-3.90234,5.66015-7.084A14.43429,14.43429,0,0,1,51.34961.43066Zm-8.2793,9.50977v.0791q0,1.39746,1.77539,1.6084h.67676q2.7334,0,5.07129-3.1377a7.48838,7.48838,0,0,0,.501-2.17968,3.67621,3.67621,0,0,0-.2461-1.3711l.0791-.2373q-.22851-1.2129-.334-1.21289-2.4873.334-5.748,3.22558A4.77013,4.77013,0,0,0,43.07031,9.94043Z"/><path class="cls-1" d="M58.6665.44824h.38672A2.28326,2.28326,0,0,1,61.04834,1.749l.07031.30762a14.92267,14.92267,0,0,1-1.6875,3.84082,14.20514,14.20514,0,0,0-1.7666,6.36328v.22852a11.09668,11.09668,0,0,0,3.22559-3.14649,21.842,21.842,0,0,0,3.4541-5.37011l.457-.99317a.202.202,0,0,0,.22852-.22851l.0791-.0791h.1582v.30761h.07031q.21095-1.30079.38672-1.30078h.0791v.30762h.07032V1.37109h.1582v.22852A2.55823,2.55823,0,0,0,66.71729.44824h.0791A2.90486,2.90486,0,0,1,67.561,2.67188q0,5.0625-6.5127,11.50488a5.278,5.278,0,0,1-2.83887.77344q-2.94434,0-3.91992-2.15332l-.14941-.92286v-.37793A11.39249,11.39249,0,0,1,55.37061,6.126l1.99511-4.68457Q58.01612.44825,58.6665.44824Z"/><path class="cls-1" d="M74.76318.19336h.68555q5.124,0,6.04688,3.36621l.0791.46582v.22852q0,1.01073-4.59668,3.36621a35.25169,35.25169,0,0,1,1.15136,6.81152l.07911.0791v.07031l-.07911.23731.07911.68555-.07911.0791H77.98q0-.30762-.1582-.30762,0,.22851-.14942.22852h-.1582l-.07031-.07911h-.0791q-.11427.30762-.22852.30762l-.38672-.0791-.14941.1582q-.05274-.38671-.38672-.38672a42.21845,42.21845,0,0,1-2.13574-6.583L70.63232,9.99316q-.4746,1.08107-.76464,1.22168l-.07911.38672h-.22851l.30762-.84375v-.0791h-.07911l-.38671.84375.1582.1582q-.29,0-1.15137,1.59961-.10547.00879-.457,1.002-.1582,0-.76465,1.52929h-.0791q0-.35155-.76465-.61523l-.14941.1582q0-.15821-.23731-.1582l-.22851.0791q-.167-.41309-.457-.457v-.23731q0-1.85448,4.21-10.25683-1.6084-1.08984-1.6084-1.75781V2.18848q.06152-.4043,2.83008-1.37989Q71.08935.19337,74.76318.19336ZM72.311,6.24023h.1582q4.59668-1.96875,5.58105-3.13769v-.0791L76.521,2.95312h-.14942q-2.90917,0-2.90918.68555A16.232,16.232,0,0,1,72.311,6.24023Z"/><path class="cls-1" d="M83.55664.90527H84.04a2.53771,2.53771,0,0,1,2.26758,1.292v.32519a18.06334,18.06334,0,0,1-1.53809,2.751L81.21,12.63867a5.29581,5.29581,0,0,1-.97558,1.459l-.07911-.08789h-.0791l-.167.40429H79.751l.1582-.5625-.8877,1.459h-.0791l-.0791-.0791v-.0879l.0791-.0791v-.1582h-.0791l-.32519.72949h-.167v-.08789l.167-.4043L77.2373,16.19824,77,16.04l.0791-.08789v-.23731l-.24609.15821-.15821-.15821q0-1.06347,5.82715-13.84277Q82.85352.90528,83.55664.90527ZM82.001,11.43457v.13184h.07031v-.13184Z"/><path class="cls-1" d="M93.65039,0l1.57324.0791h1.57325a.70032.70032,0,0,1,.668.42188l-.08789.0791Q97.79.60645,97.79.82617V.91406h-.90527v.0791H97.21v.167h-.1582l.0791.08789-.0791.0791v.167l.41308.0791v.08789l-.08789.0791v.08789q.501,0,.501.65918.334.044.334.2461v.167l-4.8955.58008q-.624,0-.99317,1.57324-4.377,8.52539-5.22949,10.86328a1.36776,1.36776,0,0,1-.82617.501l-.334-.334q-.49218,0-.49218-.41308l-.08789.08789h-.07911q-.01757-.21095-.82617-.74707l-.25488-.42188q0-1.66992,3.98144-8.86816l.668-1.57324-3.07617.49218a2.25564,2.25564,0,0,1-2.32031-1.57324l-.24609-.99316v-.167a1.27237,1.27237,0,0,1,.65918-.99317h1.08105A67.73549,67.73549,0,0,0,93.65039,0Z"/><path class="cls-1" d="M107.4707.72949a.26413.26413,0,0,0,.29883.29883v.14941H107.541v.07911c.25195,0,.3789.0498.3789.14941v.0791h-.29883c0,.15235.14844.22852.44727.22852v.14941h-.22852v.07031h.90625l.68555.37793-.08008.0791v.07032c.252,0,.37891.05273.37891.1582q0,.27246-2.79492.59766a12.5019,12.5019,0,0,0-3.61328,1.05468l-.834,1.66114h.07813a11.33437,11.33437,0,0,1,2.33789-.22852l.15039.22852-.22852.0791V6.082c.4043,0,.60547.04981.60547.14942l-.377.1582V6.46h.14843l-.07031.22852q0,.37792.59766.60644v.07031l-.07031.07911v.07031c.25195,0,.3789.05273.3789.1582v.07031q0,.22853-4.75586,1.20411-.58887,0-1.51172,2.26757l5.43164-.90527V10.459h.08008l.377-.0791c.06445.252.1914.37793.3789.37793v.22852a.52667.52667,0,0,0-.3789.22851H105.502v.07032h.457v.1582H105.582l.07813.07031v.0791l-.07813.07032q1.11621,0,1.20313.37793l-.07032.0791c.252.03515.37891.11133.37891.22851a18.84039,18.84039,0,0,1-4.52734,1.125Q98.04,14.23829,98.041,14.83594a1.15278,1.15278,0,0,1-.67774.67676h-.0791l-.44824-.37793h-.15821l-.37793.0791q0-.19336-.74707-.37793l-.22851.07031-.0791-.07031v-.0791l.0791-.22852H95.1748l-.0791.0791h-.07031l-.0791-.0791V14.458q.624-2.24121,5.581-12.67383,0-.75586,1.05469-.90527l2.94531.0791Z"/><path class="cls-1" d="M123.01855.8877h.25489a3.096,3.096,0,0,1,3.07617,1.916q-.20216,1.749-.58008,1.749h-.08789a5.53894,5.53894,0,0,1-1.749-.501l-1.66114-.167a9.5895,9.5895,0,0,0-7.65527,3.74414A6.457,6.457,0,0,0,113.28027,11.54q0,1.169,1.749,1.16894a10.05553,10.05553,0,0,0,2.99707-.668v-.07911h-.08789l-2.40821.167q0-.22852-.668-.58887l.07911-.0791V11.373h-.49219v-.167l.49219-.0791v-.0791l-.65918-.08789v-.167h.24609v-.0791h-.41309V10.626l.167-.2461q-.58887,0-.58887-.167,0-.55371,10.23926-2.3291a1.52,1.52,0,0,1,1.415,1.16016l.08789.25488a2.58954,2.58954,0,0,1-1.169,1.82812q0,.81739-4.15722,3.33106a7.87314,7.87314,0,0,1-3.832,1.081h-.74707q-3.73534,0-5.001-3.832l-.0791-.74707v-.501q0-3.00585,4.6582-7.24218A13.78954,13.78954,0,0,1,123.01855.8877Z"/><path class="cls-1" d="M133.07812.7998q2.11816,0,2.59278,1.25684.27246,1.11621.65918,4.42969l.0791.0791q.04395.51855.21973.51855l2.36425-.29882v.14941h.07911L140.25,6.86426v.14062l-.51855.14942v.0791H140.25l.51855-.0791v.14941a3.48954,3.48954,0,0,1-1.17773.29883V7.752l.36914-.0791q.50976.14941.50977.29883l.37793-.0791q1.47656.04395,1.47656.29883l-.0791.07031.51855.14941v.14942a14.28378,14.28378,0,0,1-4.13965.88769l-1.32714.21973a25.64419,25.64419,0,0,1,.958,5.10644v.29l-.21972.22852h-.07911a.7932.7932,0,0,1-.50976-.22852V15.293h-.14941v-.14942l-.22852.14942-.29-.22852-.73828.29883-.59766-.58887a21.16415,21.16415,0,0,1-1.10742-4.36816h-.07031q-4.6582,1.28321-4.6582,2.00391a14.552,14.552,0,0,0-1.7754,2.28515q-.50976.59766-.81738.59766l-.14941-.36914-.07031.07031h-.07032q-.44824-.26367-.44824-.58887l-.07031.07032h-.14942v-.14942q-.30761,0-.58886-.43945-.29883,0-.29883-.14942v-.51855q0-.82617,1.77539-2.7334.75587-1.25683,2.44336-3.48047l2.51367-4.42968.50977-1.48536A1.22011,1.22011,0,0,1,133.07812.7998Zm-.58886,7.17188V8.042q1.25683-.32519,1.25683-.43945L133.52637,6.416A6.18135,6.18135,0,0,0,132.48926,7.97168Zm6.873-1.25684h.14942v.14942h-.14942Zm.07911.51856v.07031h.14941V7.2334Z"/><path class="cls-1" d="M144.78906.334h.39551q.90528,0,1.582,1.18653l-.1582,3.16406a4.91683,4.91683,0,0,0,.39551,2.14453,9.11587,9.11587,0,0,0,1.59082-1.59082,30.77809,30.77809,0,0,0,3.16406-3.085A2.93822,2.93822,0,0,1,153.98242.65039l.55371-.0791q.77344.17578.87012.47461.17578,0,.71191.63281v.1582q0,.79982-2.30273,5.86231-.78222,1.89843-1.02832,1.89844l.0791.0791v.0791l-1.02832,2.05664a13.36921,13.36921,0,0,0-1.26562,2.61914l-.55372.71191h-.55371v-.1582l-.3164.1582q0-.17577-.55371-.3164l-.15821.1582q-.21972-.02637-.3164-.39551-.31641,0-.31641-.1582v-.55371q0-1.53808,2.37305-5.94141a15.59219,15.59219,0,0,0-2.37305,2.84766q-.26367,0-.7207.47461h-.0791a3.96565,3.96565,0,0,0-1.582-.71191q-.79981-.54493-1.42383-3.24317h-.0791a86.104,86.104,0,0,1-3.80567,8.23535h-.1582l-.39551-.2373-.2373.0791-.07911-.0791-.0791.0791-.1582-.31641-.1582.15821-.07911-.07911-.71191.15821q-.17578-.43066-.47461-.47461v-.31641q0-1.89843,4.51758-10.77539Q143.16308.49218,143.83984.49219Z"/><path class="cls-1" d="M165.28906.72949a.26413.26413,0,0,0,.29883.29883v.14941h-.22851v.07911q.37793,0,.37792.14941v.0791h-.29882q0,.22852.44824.22852v.14941h-.22852v.07031h.90528l.68554.37793-.0791.0791v.07032q.37794,0,.37793.1582,0,.27246-2.79492.59766a12.49871,12.49871,0,0,0-3.61231,1.05468l-.835,1.66114h.07911a11.33437,11.33437,0,0,1,2.33789-.22852l.14941.22852-.22852.0791V6.082q.60645,0,.60645.14942l-.37793.1582V6.46h.14941l-.07031.22852q0,.37792.59766.60644v.07031l-.07031.07911v.07031q.37793,0,.37793.1582v.07031q0,.22853-4.75489,1.20411-.58887,0-1.51172,2.26757l5.43164-.90527V10.459h.07911l.37793-.0791q.09668.37794.37793.37793v.22852a.52505.52505,0,0,0-.37793.22851h-.15821v.07032h.457v.1582h-.37793l.07911.07031v.0791l-.07911.07032q1.11621,0,1.20411.37793l-.07032.0791q.37794.05272.37793.22851a18.826,18.826,0,0,1-4.52636,1.125q-4.52637.76465-4.52637,1.36231a1.15072,1.15072,0,0,1-.67676.67676h-.0791l-.44824-.37793h-.15821l-.37793.0791q0-.19336-.74707-.37793l-.22851.07031-.0791-.07031v-.0791l.0791-.22852h-.14942l-.0791.0791h-.07031l-.0791-.0791V14.458q.624-2.24121,5.58105-12.67383,0-.75586,1.05469-.90527l2.94434.0791Z"/></svg>