<?xml version="1.0" encoding="UTF-8"?>
<svg fill="#FFFFFF" width="100pt" height="100pt" version="1.1" viewBox="0 0 100 100" xmlns="http://www.w3.org/2000/svg">
 <g>
  <path d="m46.109 22.367c-1.3477-0.25-2.6875 0.89062-2.9922 2.5469-0.30469 1.6562 0.51953 2.9883 1.8672 3.2344 1.3477 0.25 2.707-0.67578 3.0156-2.3359 0.30469-1.6523-0.53906-3.1992-1.8906-3.4453zm-0.046875 3.0508c-0.12109 0.66016-0.65234 1.1133-1.1914 1.0156-0.53516-0.097656-0.87109-0.71484-0.75-1.3711 0.015625-0.078125 0.050781-0.14062 0.074218-0.21094 0.019532 0.32813 0.20313 0.60547 0.48438 0.65625 0.34375 0.0625 0.68359-0.22656 0.76172-0.64844 0.0625-0.34375-0.074218-0.66016-0.3125-0.80078 0.0625-0.003906 0.12109-0.023438 0.18359-0.011719 0.53516 0.097656 0.87109 0.71094 0.75 1.3711z"/>
  <path d="m91.031 51.223c-0.22266-0.5625-0.26172-2.6562-0.09375-4.7422 0.58594-0.5625 1.5547-1.832 1.1602-3.8008-0.30469-1.5156-1.0117-5.0703-4.1094-5.6602-1.0273-0.19531-1.875-0.26172-2.4922-0.30859-0.40625-0.03125-0.91406-0.070313-1.0117-0.11328 0 0-0.003906 0-0.003906-0.003906-0.015625-0.011719-0.035157-0.027344-0.046875-0.035156-0.13672-0.10156-0.37891-0.25391-0.99219-0.63672-2.5742-1.6094-9.4141-5.8828-12.496-9.5547-1.0117-1.2031-1.6094-1.9375-1.9648-2.3828 0.46875-1.2422 1.2969-3.9141 0.37109-5.3047-0.88672-1.3281-2.5234-2.6211-4.2734-3.3711-0.34766-0.14844-0.75781-0.28906-1.1797-0.42969 0.023437-0.007812 0.050781-0.011718 0.074218-0.019531 1.4141-0.375 2.2344-0.60547 2.6836-0.96484 0.44141-0.35547 0.60547-0.89453 0.42578-1.4062-0.46484-1.3164-2.9336-1.5156-4.3672-1.5156-0.5 0-1.0156-0.03125-1.5078-0.078125 0.097657-0.11328 0.16797-0.25781 0.21484-0.44141 0.0625-0.24609 0.11328-0.875-0.71484-1.3281l-0.91016-0.49609c-0.35547-0.50391-1.2266-1.3984-3.043-1.6875l-1.9688-0.3125c-0.46094-0.074218-0.91016 0.18359-1.0859 0.61328-0.019531 0.050781-0.035157 0.10547-0.050781 0.16016-0.15625 0.019531-0.35938 0.035156-0.61719 0.046875l-0.80469 0.039062c-1.8789 0.085938-2.0391 0.078125-2.6836-0.30859l-0.32422-0.19922c-0.85938-0.53516-1.1836-0.69141-3.5586-1.0703-1.7656-0.28125-4.1758-0.47656-6.1641-0.29688 0.019531-0.11328 0.015625-0.20703 0.011718-0.27344-0.035156-0.43359-0.32031-0.8125-0.75391-1.0039-0.67188-0.30078-1.8516-0.22266-2.9766 0.625-0.83594 0.63281-1.0156 0.82422-1.2578 1.3516-0.089843 0.19531-0.21484 0.46094-0.62109 1.0547-0.37109 0.54297-0.72266 0.82031-1.0352 1.0625-0.55078 0.4375-1.3086 1.0312-0.85938 2.4922 0.035156 0.11719 0.089844 0.28906 0.12891 0.4375-0.015624 0.011719-0.035156 0.023437-0.050781 0.035156-0.12109 0.078125-0.26172 0.17188-0.42188 0.28125-1.082 0.75781-1.6406 1.9648-1.293 2.8086 0.10156 0.24609 0.26953 0.44141 0.47656 0.57812l-0.074219 0.22656c-0.28125 0.84375-0.24609 1.4766-0.22656 1.8945 0.019531 0.38672 0.019531 0.38672-0.17578 0.54297-0.26172 0.20703-0.44141 0.41406-0.5625 0.61328-0.78125 0.03125-1.2852 0.3125-1.5781 0.54688-0.44141 0.35547-0.70312 0.86328-0.70312 1.3555 0 0.042968 0.003906 0.085937 0.007812 0.12891-0.4375 0.19922-0.88672 0.55859-1.5312 1.0977-1.0039 0.83594-1.9727 2.1602-1.3945 3.1289 0.023437 0.039063 0.078125 0.12109 0.16406 0.21094-1.0078 1.0508-1.8008 2.4062-1.7852 3.125 0.011719 0.44531 0.25781 0.82812 0.64844 1 0.53906 0.23828 1.0234-0.011719 1.3398-0.24609-0.39453 0.91016-0.77734 1.6172-1.1016 1.7969-0.92969 0.51562-4.9648 2.6875-4.9648 2.6914-0.42188 0.22656-0.625 0.72266-0.48047 1.1836 0.14453 0.45703 0.59375 0.74609 1.0703 0.69141 0.14844-0.019531 0.30078-0.035156 0.44922-0.050781-0.49609 0.75781-0.99219 1.5156-0.99219 1.5156-0.22266 0.33984-0.21875 0.77734 0.011719 1.1094 0.22656 0.33594 0.63281 0.49609 1.0312 0.41406 0.066406-0.015624 0.13672-0.027343 0.20703-0.039062-0.12891 0.42188-0.31641 0.87109-0.91016 1.4648-2.9492 2.9492-2.4375 3.5352-2.0625 3.9648 0.64844 0.74219 1.5117 0.17969 2.0078-0.19141 0 0.003907 0 0.007813-0.003906 0.011719-0.0625 0.25391-0.16406 0.52734-0.23828 0.69141-0.66797 0.25-1.4375 0.92969-1.4766 1.6445-0.023437 0.44531 0.19531 0.91797 0.72266 1.1523 0.10156 0.23828 0.25781 0.58984 0.53906 0.86328-0.28125 0.14453-0.53516 0.34375-0.71484 0.62109-0.19922 0.30859-0.46484 0.95703 0.015625 1.8555 0.1875 0.35547 0.42969 0.65234 0.70703 0.92188-2.8047 0.87109-5.6055 3.9492-5.6055 12.793v32.332c0 0.55469 0.44922 1 1 1 0.55078 0 1-0.44531 1-1l-0.007813-32.324c0-4.8086 0.88281-10.617 5.0703-11.062 0.26172 0.55469 0.86328 2.3125 1.5586 4.4375-0.17969-0.023437-0.36719-0.015625-0.54688 0.066407-0.48828 0.21484-0.70703 0.80469-0.51953 1.3047 0.65625 1.7109 2.4375 27.984 1.4453 37.117-0.058594 0.55078 0.33594 1.043 0.88672 1.1016 0.035157 0.003906 0.074219 0.007813 0.10938 0.007813 0.50391 0 0.9375-0.37891 0.99219-0.89063 0.77734-7.1445-0.10938-26.305-1.0078-34.504 0.09375 0.29297 0.1875 0.58203 0.27734 0.86719 1.7305 5.3789 3.5156 10.941 4.3828 12.816 3.2734 7.0664 9.5859 18.25 16.727 18.25 0.625 0 1.2578-0.085938 1.8945-0.26953 10.48-2.9961 10.543-27.094 10.52-29.656 0.13281-0.074219 0.26172-0.15625 0.39453-0.23828 0.23828-0.15234 0.64453-0.40234 0.80469-0.44141 0.12891-0.027343 0.26172-0.070312 0.39844-0.11328 0.53906-0.17188 1.207-0.38281 2.4023 2.8203 1.7773 4.7656 5.4414 11.121 6.6445 13.211 1.1523 1.9961 1.8945 3.0703 2.3984 3.6641-0.57422 1.332-1.0586 3.4375-0.097656 5.4688 1.2578 2.6523 4.5195 4.2617 9.7031 4.8047-0.85547 0.93359-2.6445 2.2109-5.9297 1.9531-2.0938-0.16406-6.8828-7.3477-8.4531-9.7109-0.46094-0.69141-0.83203-1.25-1.082-1.5898-1.5273-2.1016-3.9844-4.0781-5.1914-4.918-0.32422-0.22266-0.78516-0.23828-1.125-0.039063-0.46094 0.27734-1.0898 0.65625 0.19531 11.246 0.35938 2.9492 0.89844 6.7383 0.90234 6.7773 0.070312 0.49609 0.5 0.85938 0.98828 0.85938 0.046875 0 0.09375-0.003906 0.14453-0.011719 0.54688-0.078125 0.92578-0.58594 0.84766-1.1328-0.007812-0.035156-0.54297-3.8086-0.89844-6.7344-0.28516-2.3398-0.62109-6.043-0.73047-8.1992 1.0742 0.89453 2.3594 2.1016 3.2539 3.3242 0.23438 0.32422 0.59375 0.85938 1.0312 1.5234 3.4922 5.2383 7.1367 10.375 9.9648 10.594 5.2227 0.41016 7.5586-2.3984 8.2891-3.5391 1.9922-0.44141 4.2695-0.98828 4.2695-0.98828 0.46875-0.11328 0.78516-0.53906 0.76562-1.0195-0.003907-0.085937-0.10547-2.1562-0.47266-4.3516-0.34375-2.0508-0.70703-7.6289-0.70703-10.012 0-0.84375-0.011719-1.4219-0.023437-1.957-0.019532-0.95312-0.035156-1.7734 0.023437-3.7773 0.0625-2.1328-0.28516-3.3164-0.53906-4.1836-0.12891-0.44141-0.22266-0.76172-0.22266-1.0781 0-1.2227 0.53125-2.9492 0.76172-3.6367 0.76953-2.3086 0.20312-4.1055-1.4883-4.9375-0.011719-0.23047-0.03125-0.45313-0.0625-0.66406 1.5586 0.09375 3.3008-0.039063 4.5938-0.79297 1.0977-0.64453 2.9375-1.9102 2.9219-3.1953 0-0.46875-0.22266-0.87891-0.60938-1.1484zm-37.879-37.129c0.55469 0.12891 0.84766 0.24609 1.2188 0.39453 0.37109 0.14844 0.79688 0.31641 1.5352 0.52734 0.87109 0.25 1.2539 0.29688 1.6172 0.33984 0.26172 0.03125 0.50391 0.0625 1.0039 0.1875 0.78516 0.19531 1.7695 0.3125 2.457 0.37891 0.46094 0.27344 1.1172 0.48828 1.9102 0.74219 0.50391 0.16016 1.0234 0.32813 1.3945 0.48828 1.3906 0.59766 2.7266 1.6328 3.3984 2.6406 0.22656 0.33984 0.027344 1.668-0.41016 3-0.14453 0.050781-0.26562 0.13281-0.36719 0.22656-0.78906 0.72656-0.60547 0.94531 2.5 4.6406 3.2891 3.9102 10.32 8.3086 12.969 9.9609 0.45703 0.28516 0.76562 0.47656 0.85547 0.54297 0.011719 0.007813 0.019531 0.011719 0.03125 0.019532 0.007813 0.003906 0.011719 0.011718 0.015625 0.015625 0.57422 0.40625 1.1055 1.0742 1.0508 1.3203 0 0.003907-0.14844 0.48438-1.8906 0.875-0.58203-0.16406-1.9102-0.5-3.3945-0.63281-0.1875-0.042969-0.375-0.085938-0.5625-0.125-0.72656-0.14844-1.4102-0.29297-2.1133-0.67188-0.89844-0.48047-8.5742-6.6562-11.527-9.6953-1.4297-1.4727-2.7812-3.5898-4.2148-5.8281-1.4375-2.2461-2.9219-4.5703-4.7578-6.75-0.95703-1.1328-1.9531-1.9805-2.9336-2.6211 0.050781-0.007812 0.10938 0 0.21484 0.023438zm1.8125 51.223c-0.085938 0.16797-0.16797 0.33203-0.24219 0.49219-0.50391 1.0625-0.89844 1.9023-4.9922 3.707-0.50391 0.22266-0.73438 0.8125-0.51172 1.3164 0.16406 0.375 0.53125 0.59766 0.91406 0.59766 0.13672 0 0.26953-0.027344 0.40234-0.085938 1.7539-0.77344 2.9375-1.4219 3.7773-2.0195-0.64453 5.2695-2.5195 12.93-6.4922 15.277-0.47656 0.28125-0.63281 0.89453-0.35156 1.3711 0.1875 0.31641 0.51953 0.49219 0.86328 0.49219 0.17188 0 0.34766-0.046875 0.50781-0.14062 1.4648-0.86328 2.6523-2.2422 3.6172-3.8711-1.3828 4.3047-3.4648 7.7812-6.5508 8.6602-6.7109 1.9336-13.605-11.18-16.258-16.898-0.81641-1.7578-2.6641-7.5117-4.293-12.586-0.66016-2.0586-1.1914-3.7031-1.6328-5.0391 1.1836 1.7227 2.4531 4 3.5039 7.0156 4.4727 12.867 13.164 17.246 13.531 17.426 0.14063 0.070312 0.28906 0.10156 0.4375 0.10156 0.37109 0 0.72656-0.20703 0.89844-0.5625 0.24219-0.49609 0.039062-1.0938-0.45703-1.3398-0.082031-0.039063-8.3164-4.1875-12.523-16.285-1.5039-4.3242-3.4336-7.2266-4.9805-9.168 0.019532 0.011718 0.035157 0.015625 0.054688 0.027344 1.5664 0.85156 5.3984 3.1055 8.4766 4.9219 1.7891 1.0547 3.3555 1.9766 4.1523 2.4336 1.8906 1.0781 5.1367 1.6094 7.0273 1.625 0.019531 0.0625 0.042969 0.12891 0.070312 0.19141 0.34375 0.76563 1.2422 1.0039 1.5391 1.082 0.30469 0.078125 0.67188 0.11719 1.0859 0.11719 2.1055 0 5.4492-0.96875 7.9492-2.3984 0.019531 0.10547 0.042969 0.21094 0.0625 0.31641 0.054688 0.3125 0.10938 0.60547 0.19141 0.84766 0.050781 0.14453 0.13672 0.26562 0.23047 0.37891 0.007813 0.59375 0.007813 1.2617-0.007812 1.9961zm0.21484-6.4727c-2.1992 2.1055-7.6367 3.6875-9.2148 3.2812-0.007813-0.003906-0.015625-0.003906-0.023438-0.007812 0.10938-0.36328 0.058594-0.69141-0.15625-0.97656-0.42188-0.55859-1.0859-0.42578-1.3047-0.37891-0.75 0.14844-4.6836-0.20312-6.668-1.3398-0.78906-0.45312-2.3477-1.3672-4.1289-2.418-3.0938-1.8203-6.9414-4.0898-8.5391-4.9531-0.86719-0.46875-1.7188-0.83203-2.4727-1.1484-1.2148-0.51562-2.1992-0.92969-2.7031-1.5938 0.25-0.042969 0.59766-0.0625 0.89062-0.042969 0.44922 0.035156 0.87891-0.24609 1.0234-0.67969 0.003907-0.011719 0.41406-1.2266 1.4062-3.3086 0.19531-0.41406 0.45313-0.97266 0.75-1.6172 0.28516-0.62109 0.61328-1.3398 0.96875-2.0938 0.82031-1.4297 1.6055-2.8555 2.2188-3.9961 0.90234 4.2305 3.3711 6.0273 4.9883 7.1953l0.35938 0.26172c0.17969 0.13281 0.38672 0.19531 0.59375 0.19531 0.30859 0 0.60938-0.14062 0.80469-0.40625 0.32812-0.44531 0.23047-1.0703-0.21094-1.3984l-0.375-0.27344c-1.9766-1.4258-4.6875-3.3828-4.5078-9.6758 0.14453-4.9883 1.3594-6.5977 2.5352-8.1523 0.45703-0.60547 0.92969-1.2305 1.3086-2.0195 1.2148-2.5234 2.2578-5.918 2.3789-7.7266 0.023438-0.35547 0.09375-0.75 0.18359-1.1289 0.53906 0.30469 1.1562 0.33984 1.6523 0.089844 0.085938-0.042969 0.17188-0.09375 0.26172-0.14453 0.14453 0.15234 0.32031 0.27734 0.52734 0.35938 0.43359 0.16797 0.91406 0.097656 1.3203-0.19141 0.066406-0.046876 0.14062-0.10547 0.22266-0.16406 0.11719 0.011719 0.21875 0.011719 0.28906 0.011719 0.6875 0 1.7305-0.17969 2.4062-0.6875 0.14062-0.10547 0.25391-0.20703 0.35156-0.30078 0.75391 0.078126 1.3984-0.30859 1.8438-0.57422 0.023438-0.011719 0.042969-0.027344 0.0625-0.039063 0.19922 0.29297 0.44141 0.57031 0.74219 0.74219 0.11719 0.10547 0.25391 0.1875 0.41797 0.22656 0.26563 0.0625 0.61328 0.10938 1.0312 0.16797 1.9062 0.25391 5.1016 0.67969 7.9414 4.0469 1.7539 2.0781 3.2031 4.3477 4.6016 6.5352 1.4883 2.3281 2.8945 4.5273 4.4648 6.1445 2.5352 2.6094 9.0859 8.0312 11.383 9.6484-0.25391 0.12891-0.49219 0.26953-0.70313 0.44922-2.5742 2.168-1.168 5.1797-0.32031 6.8789-0.82422-0.33984-1.8398-0.68359-2.7656-0.78516-2.125-0.23047-3.2148 0.80469-3.7656 1.707-0.94922 1.5625-0.91797 3.9023-0.60938 5.6172-0.6875-0.11719-1.7188-0.29297-3.3945-0.67188-3.207-0.72656-5.5117-1.6367-6.8555-2.7109-1.1289-0.90234-1.9102-0.60938-2.2734-0.35547-0.92188 0.64453-0.79297 2.1445-0.66016 2.5508 0.03125 0.12891 0.0625 0.42578 0.10938 0.78516 0.21094 1.6289 0.34766 2.4336 0.61328 2.8789 0.51953 0.86719 1.4844 0.77344 2.1211 0.71484 0.078125-0.007813 0.16016-0.015625 0.23828-0.019532-0.22656 0.32031-0.63672 0.80078-1.3594 1.4922zm25.824-3.7773c0.28906 0.13672 0.57812 0.26953 0.86328 0.39453 0.007812 0.035156 0.011718 0.070312 0.023437 0.10547 0.03125 0.085938 0.51953 1.4492 0.21875 2.7656-0.027344 0.054688-0.066406 0.097657-0.085937 0.15234-0.027344 0.089844-0.078126 0.16797-0.14453 0.23438-0.003906 0.003906-0.007812 0.003906-0.011718 0.007812-0.12109 0.066407-0.23047 0.14063-0.33203 0.21875-0.65234 0.28516-1.7891 0.25781-2.6289 0.058594-2.0117-0.46484-4.7734-2.5547-6.5508-4.2578 2.9336 1.8906 7.2383 3.8828 8.1914 2.2266 0.43359-0.75781 0.5-1.4141 0.45703-1.9062zm-10.902 0.25c0.74219 0.80469 1.8398 1.8125 3.0703 2.7695-0.58594-0.089844-1.1289-0.15625-1.5898-0.19141-0.52734-0.51172-1.043-1.0234-1.5039-1.4805-0.44141-0.4375-0.76953-0.76172-1.0312-1.0156-0.019531-0.10547-0.050781-0.21094-0.10547-0.30859-0.32031-0.56641-0.98047-3.9727 0.054688-5.543 0.23438-0.35547 0.67578-0.81641 1.8008-0.69531 0.50781 0.054688 1.0664 0.21875 1.5977 0.40625-0.54688 0.03125-1.1523 0.13672-1.8555 0.32813-1.3086 0.35937-1.7344 1.2227-1.8711 1.7031-0.40234 1.3867 0.47656 2.9883 1.4336 4.0273zm1.1055 25.246c-0.39453-0.54297-1.0078-1.4688-1.8555-2.9414-1.1836-2.0547-4.7852-8.3008-6.5039-12.906-1.5391-4.1289-3.0625-4.5977-4.875-4.0312-0.085937 0.027344-0.17188 0.054687-0.25 0.074218-0.4375 0.10156-0.85938 0.34766-1.2695 0.60547-0.050781-0.24609-0.125-0.51172-0.21875-0.77734 0.11328-0.097657 0.22656-0.19141 0.32812-0.28906 1.8867-1.8047 2.5195-2.9336 2.1914-3.9023-0.09375-0.26953-0.41406-0.91406-1.4258-1.0273-0.45312-0.050782-0.875-0.011719-1.2188 0.023437-0.085937 0.007813-0.18359 0.019531-0.26953 0.023437-0.11328-0.49219-0.23047-1.4336-0.28906-1.8789-0.066406-0.53125-0.10547-0.79688-0.14062-0.95312 1.6094 1.1836 4.0312 2.1328 7.3906 2.8906 1.7422 0.39453 2.8125 0.57422 3.5195 0.69141 0.32813 0.054688 0.64453 0.10938 0.77344 0.14453 0.24609 0.21094 0.94922 0.90625 1.5742 1.5273l0.097656 0.097656c-0.92578 0.13672-1.6914 0.52734-1.9766 1.668-0.16406 0.66016-0.035156 1.3203 0.36328 1.8594 0.61328 0.82031 1.7695 1.293 3.3555 1.3633l1.5078 0.070312c0.25781 0.011719 0.48047 0.023438 0.71484 0.035157-0.51953 0.22656-0.99219 0.60156-1.1367 1.2305-0.18359 0.82422 0.34375 1.5898 0.96875 2.1758-0.30469 0.35547-0.52734 0.83203-0.57422 1.4531-0.03125 0.43359 0.070313 0.83984 0.30078 1.1836-0.57031 0.41406-0.77734 1.0195-0.75781 1.5547 0.054688 1.332 1.457 2.5859 3.0664 2.7383 0.24609 0.023437 0.48047 0.019531 0.69141 0.007813-0.085937 0.14844-0.17187 0.30859-0.24609 0.47656-0.39844 0.88281-2.707 5.043-3.8359 6.8125zm13.215 6.3672c0.21094 1.2656 0.32812 2.5078 0.39062 3.293-0.62109 0.14844-1.5312 0.35938-2.4648 0.57031-0.10156-0.039063-0.19922-0.070313-0.3125-0.074219-5.6641-0.23047-9.2305-1.5547-10.309-3.8281-0.71875-1.5156-0.19922-3.168 0.22266-4.0352 0.48438-0.41406 1.1406-1.4609 2.5-3.8359 0.9375-1.6367 1.9922-3.5742 2.3438-4.2969 0.054687 0.066406 0.089843 0.13281 0.14844 0.20312 1.0898 1.2188 2.2383 1.4219 3.2031 1.4219 0.25781 0 0.5-0.015625 0.72656-0.027344 0.33594-0.019531 0.65234-0.039062 0.91016-0.003906 0.55078 0.074219 1.0508-0.3125 1.1211-0.85938 0.074218-0.54688-0.3125-1.0508-0.85938-1.1211-0.44922-0.058594-0.87891-0.035157-1.293-0.011719-0.92188 0.054687-1.5859 0.09375-2.3242-0.73047-0.28516-0.31641-0.28516-0.51172-0.28906-0.80469-0.011719-1.1367-0.66797-1.4688-1.2344-1.543-0.44922-0.10547-0.89062-0.0625-1.2852-0.019532-0.29297 0.03125-0.56641 0.066407-0.83203 0.042969-0.65625-0.0625-1.0977-0.49609-1.2227-0.73047 0.042969-0.015624 0.10156-0.03125 0.18359-0.046874 0.76953-0.13672 1.2539-0.24609 1.5781-0.37891l3.9414-0.41016c0.55078-0.058594 0.94922-0.55078 0.89062-1.0977-0.058594-0.55078-0.53906-0.95312-1.0977-0.89062l-4.0391 0.42188c-0.41406-0.011719-0.95312-0.14844-1.0391-0.21484 0.027343-0.37891 0.33203-0.49219 0.49219-0.51953 0.17578-0.023438 0.33203-0.10547 0.46484-0.20703 1.7578-0.17187 3.9453-0.53125 4.0469-0.54687 0.54688-0.089844 0.91406-0.60547 0.82031-1.1484-0.089844-0.54297-0.59766-0.91797-1.1484-0.82031-0.023438 0.003906-2.543 0.42187-4.2695 0.5625-0.25391-0.1875-0.48828-0.39063-0.64453-0.55859 0.15625-0.042969 0.39062-0.085938 0.72266-0.12109 1.6406-0.16797 2.6758-0.93359 2.6445-1.9453-0.015625-0.45703-0.28125-1.5273-2.4648-1.6133-1.2773-0.050781-1.7695-0.074218-2.5352-0.10938l-1.5117-0.070312c-1.1602-0.054688-1.7031-0.37891-1.8398-0.5625-0.03125-0.042969-0.050781-0.078125-0.027343-0.17969 0.019531-0.082031 0.039062-0.11328 0.039062-0.11328 0.16016-0.125 0.98828-0.11719 1.5859-0.12109h0.375c2.0469 0 7.5938 1.1523 9.3359 2.2031 0.054688 0.050781 0.12109 0.078125 0.18359 0.11719 0.089844 0.0625 0.16016 0.11719 0.20703 0.15625 0.019531 0.35156 0.22656 0.67969 0.55859 0.84375 0.44141 0.21484 0.97266 0.082031 1.2578-0.31641 0.11328-0.16016 0.1875-0.35547 0.20703-0.5625 0.039062-0.19531 0.10156-0.52734 0.17969-1.0469 0.46875-0.4375 0.80469-0.93359 1.043-1.457 0.085937-0.097656 0.17578-0.19531 0.24219-0.29688 0.12891 0.38672 0.12891 0.96094-0.16016 1.832-0.32031 0.96875-0.86328 2.8086-0.86328 4.2695 0 0.60156 0.14844 1.1055 0.30469 1.6406 0.22656 0.77734 0.51172 1.7461 0.46094 3.5625-0.058594 2.0547-0.039062 2.8984-0.019531 3.875 0.011719 0.52734 0.019531 1.0938 0.019531 1.918 0 2.4844 0.36719 8.1602 0.73438 10.344zm3.293-33.098c-0.66016 0.38672-1.6758 0.5625-2.9375 0.53906-0.023438-0.007813-0.042969-0.023438-0.066406-0.03125-1.6836-0.38281-3.9727-1.6211-5.9922-2.7148-0.53516-0.28906-1.0547-0.57031-1.543-0.82422l-0.47656-0.25c-0.36328-0.19141-0.69922-0.35938-1.0234-0.51953 0.14453-0.11328 0.26953-0.25781 0.35938-0.42969 0.33594-0.63672 0.20703-1.4961-0.39844-2.7148-1.1211-2.2422-1.4688-3.5703-0.25-4.5938 0.67188-0.56641 2.0156-0.66016 3.4102-0.54297 0.015625 0.003906 0.03125 0.007812 0.046875 0.011719 0.082031 0.019531 0.16406 0.03125 0.24219 0.03125 0.015624 0 0.027343-0.007813 0.042968-0.007813 0.72266 0.078125 1.4414 0.20312 2.0859 0.35547 0.11719 0.37891 0.44922 0.66406 0.86719 0.69922 0.80078 0.070312 0.80078 0.070312 1.1016 0.71484 0.17188 0.36328 0.53125 0.57812 0.90625 0.57812 0.14062 0 0.28516-0.03125 0.42188-0.09375 0.5-0.23437 0.71875-0.82812 0.48438-1.3281-0.16406-0.34766-0.32422-0.63281-0.50781-0.875 0.44141-0.19922 0.87109-0.45703 1.2109-0.80469 0.14062 0.40625 0.51562 0.67578 0.93359 0.67578 0.082032 0 0.16016-0.011719 0.24219-0.03125 0.53516-0.13672 0.85938-0.67969 0.72656-1.2148-0.14062-0.55859-0.51562-1.1484-0.86719-1.6172 0.27734 0.035156 0.57031 0.082031 0.89062 0.14062 0.71875 0.13672 1.2656 0.61328 1.7109 1.4844-0.30469 0.5625-0.98828 1.8555-1.1758 2.3203-0.24609 0.60938 0.070313 1.4258 0.47656 2.3516 0.054687 0.125 0.10547 0.24219 0.14453 0.33594l0.17188 0.43359 0.042969-0.011718c-0.42578 4.4844 0.042968 6.0195 0.48828 6.6094-0.32031 0.32813-0.95312 0.84375-1.7695 1.3242z"/>
  <path d="m39.312 21.973c0.54297 0.10547 1.0664-0.24219 1.1758-0.78516 0.55078-2.7461 3.6953-4.5195 7.0156-3.957 1.7734 0.30078 3.3125 1.2305 4.2266 2.5547 0.71094 1.0312 0.97656 2.2305 0.74609 3.3789-0.10937 0.54297 0.24219 1.0664 0.78516 1.1758 0.066406 0.011718 0.13281 0.019531 0.19531 0.019531 0.46875 0 0.88672-0.32812 0.98047-0.80469 0.33594-1.6836-0.039062-3.4258-1.0586-4.9062-1.2148-1.7656-3.2344-3.0039-5.5391-3.3906-4.375-0.74609-8.5508 1.7383-9.3086 5.5391-0.11328 0.53906 0.23828 1.0664 0.78125 1.1758z"/>
  <path d="m39.453 32.844c1.2148 0.69922 3.3281 1.2734 5.4688 1.2734 2.2148 0 4.457-0.61719 5.75-2.3477 0.32812-0.44141 0.23828-1.0703-0.20312-1.3984s-1.0703-0.23828-1.3984 0.20312c-1.7578 2.3516-6.9141 1.5195-8.6211 0.53906-1.7188-0.98828-2.0469-2.4844-0.98047-4.4531 0.26562-0.48438 0.082031-1.0938-0.40234-1.3555-0.48828-0.26563-1.0938-0.082032-1.3555 0.40234-1.5898 2.9258-0.9375 5.5977 1.7422 7.1367z"/>
  <path d="m37.605 35.738c1.1367 0.65234 3.3945 1.3672 5.6055 1.3672 0.57031 0 1.1406-0.046875 1.6836-0.15625s0.89453-0.63672 0.78516-1.1758c-0.10938-0.54297-0.63281-0.89453-1.1758-0.78516-2.0039 0.39844-4.7617-0.32812-5.9023-0.98438-0.69141-0.39844-1.5312-1.1172-1.5859-2.2773-0.027344-0.55078-0.51562-0.98047-1.0469-0.94922-0.55078 0.027344-0.97656 0.49609-0.94922 1.0469 0.074219 1.6094 0.99609 3 2.5859 3.9141z"/>
  <path d="m45.645 50.688c-2.6211-0.10547-4.4336-0.57812-5.5391-1.4453-0.43359-0.33984-1.0625-0.26563-1.4023 0.16797s-0.26562 1.0625 0.16797 1.4023c1.4688 1.1523 3.5938 1.7461 6.6953 1.8711 0.25 0.011718 0.50391 0.015625 0.75391 0.015625 2.4375 0 4.8438-0.42578 4.957-0.44531 0.54297-0.097656 0.90625-0.61719 0.80859-1.1602-0.097657-0.54297-0.61328-0.90625-1.1602-0.80859-0.03125 0.007813-2.8281 0.50391-5.2812 0.40234z"/>
  <path d="m43.773 86.406c-0.035157-0.011719-3.6055-1.2227-5.8867-3.4609-2.957-2.8984-4.3711-7.2773-4.3867-7.3203-0.16797-0.52344-0.73438-0.81641-1.2578-0.64844-0.52734 0.16797-0.81641 0.73047-0.64844 1.2578 0.0625 0.19922 1.5859 4.8984 4.8906 8.1406 2.6094 2.5586 6.4922 3.875 6.6562 3.9297 0.10547 0.035156 0.21094 0.050781 0.31641 0.050781 0.41797 0 0.80859-0.26562 0.94922-0.68359 0.17188-0.52734-0.10938-1.0938-0.63281-1.2656z"/>
  <path d="m44.137 70.77c-0.023438 0.007813-2.5039 0.82812-4.3945-0.33594-1.7695-1.0898-3.4805-4.3555-3.6953-5.0352-0.16797-0.52734-0.73047-0.82031-1.2539-0.65234-0.52734 0.16406-0.82031 0.72656-0.65234 1.2539 0.26562 0.84375 2.1562 4.6562 4.5547 6.1328 1.1641 0.71875 2.418 0.92578 3.4883 0.92578 1.3516 0 2.4062-0.33594 2.5977-0.39844 0.52344-0.17969 0.80469-0.74609 0.625-1.2695-0.17578-0.51562-0.74219-0.79688-1.2695-0.62109z"/>
  <path d="m51.523 64.492c-0.03125 0.019531-3.2734 1.8477-5.918 1.7578-2.0039-0.058594-3.4141-0.79297-5.4727-2.2266-0.45312-0.31641-1.0781-0.20313-1.3906 0.25-0.31641 0.45312-0.20313 1.0742 0.25 1.3906 1.9648 1.3672 3.8125 2.5078 6.5547 2.5859 0.074219 0.003906 0.14453 0.003906 0.21875 0.003906 3.1914 0 6.6055-1.9414 6.75-2.0234 0.48047-0.27344 0.64453-0.88672 0.36719-1.3633-0.26953-0.48047-0.87891-0.64844-1.3594-0.375z"/>
  <path d="m52.676 56.816c-0.089843 0.089844-0.17969 0.1875-0.27344 0.28906-0.67969 0.73438-1.6094 1.7539-6.1758 1.3242-5.2344-0.48438-8.4414-2.5664-8.4727-2.5859-0.46094-0.30469-1.082-0.18359-1.3867 0.27734-0.30469 0.46094-0.18359 1.0781 0.27734 1.3867 0.14453 0.097657 3.6289 2.3789 9.3984 2.9141 0.78906 0.070313 1.4922 0.10547 2.125 0.10547 3.4609 0 4.7266-1.0078 5.7031-2.0664 0.074218-0.082032 0.14844-0.16016 0.21875-0.23047 0.39062-0.39062 0.39062-1.0234 0-1.4141s-1.0234-0.38672-1.4141 0z"/>
  <path d="m49.793 20.688c-0.61719-0.65625-1.7617-1.4375-3.7109-1.4375-2.4492 0-4.3125 1.1523-5.25 3.2422-0.023437 0.054687-0.023437 0.11328-0.039062 0.17187-0.03125 0.046876-0.078125 0.078126-0.10156 0.13281-1.5508 3.1172-0.20703 5.8164 1.6953 7.0078 0.80859 0.50391 2.0469 0.85937 3.3281 0.85937 0.78125 0 1.5781-0.13281 2.3008-0.4375 1.4297-0.60937 2.3672-1.7891 2.7109-3.4102 0.007813-0.039062-0.003906-0.074218 0-0.10938 0.019532-0.050781 0.046876-0.09375 0.058594-0.14844 0.21484-1.0273 0.25391-1.4844 0.29297-2.1211 0.035156-0.52734 0.035156-2.3477-1.2852-3.75zm-0.96094 5.4609c-0.007812 0.039062 0.003907 0.078124 0 0.11719-0.015625 0.046875-0.046875 0.085937-0.058593 0.13281-0.20703 0.98047-0.71094 1.6289-1.5352 1.9805-1.3008 0.55469-3.0352 0.19531-3.7891-0.27734-0.89844-0.5625-2.1094-2.125-0.96875-4.4219 0.035156-0.066407 0.039062-0.14063 0.058593-0.21094 0.039063-0.054688 0.089844-0.10156 0.12109-0.16797 0.61328-1.3672 1.7656-2.0586 3.4258-2.0586 0.99219 0 1.75 0.26953 2.2539 0.80859 0.61328 0.65234 0.78516 1.625 0.75 2.2578-0.039063 0.56641-0.066406 0.92578-0.25781 1.8398z"/>
  <path d="m79.621 43.191c-1.6953-0.96094-3.2773 0.67969-3.1641 2.0352 0.11328 1.3555 2.3711 2.2578 3.0508 2.543 0.67969 0.28125 0.28125-1.3555 0.45313-1.582 0 0 1.8633-0.39453 1.8086-0.96094-0.058593-0.56641-0.45312-1.0742-2.1484-2.0352z"/>
 </g>
</svg>
