<?xml version="1.0" encoding="UTF-8"?>
<svg fill="#FFFFFF" version="1.1" viewBox="0 0 100 100" xmlns="http://www.w3.org/2000/svg">
 <g>
  <path d="m6.4141 68.215c-1.793-2.2617-3.3125-4.9102-4.5586-7.9453-1.2383-3.0352-1.8555-6.1797-1.8555-9.4297 0-2.8672 0.46484-5.6133 1.3906-8.2344 1.0859-3.0469 2.7578-6.082 5.0234-9.1094h2.332c-1.457 2.5078-2.4219 4.293-2.8906 5.3633-0.73438 1.6641-1.3125 3.3984-1.7344 5.2031-0.51562 2.2539-0.77344 4.5195-0.77344 6.7969 0 5.793 1.8008 11.582 5.4023 17.359zm39.504-29.551h-2.2227c-2.2422-3.1055-6.2812-4.6562-12.117-4.6562-5.8359-0.003906-9.8672 1.5469-12.105 4.6562h-2.2188c2.8867-4.5859 7.6641-6.8789 14.336-6.8789 6.6602 0 11.438 2.293 14.324 6.8789z"/>
  <path d="m22.688 38.504c0-1.3828 0.48828-2.5664 1.4648-3.543 0.98828-0.97656 2.168-1.4648 3.543-1.4648 1.3984 0 2.582 0.48828 3.5586 1.4648 0.97656 0.97656 1.4648 2.1562 1.4648 3.543 0 1.3828-0.49219 2.5703-1.4805 3.5586-0.97656 0.97656-2.1562 1.4648-3.543 1.4648-1.3711 0-2.5508-0.48828-3.543-1.4648-0.97656-0.97266-1.4648-2.1602-1.4648-3.5586zm1.9688 0c0 0.84375 0.29688 1.5664 0.88672 2.1641 0.60156 0.58984 1.3242 0.88672 2.1641 0.88672 0.83203 0 1.543-0.29688 2.1328-0.88672 0.60156-0.59766 0.90234-1.3203 0.90234-2.1641 0-0.83984-0.30078-1.5586-0.90234-2.1484-0.58984-0.60156-1.3008-0.90234-2.1328-0.90234-0.83984 0-1.5625 0.30078-2.1641 0.90234-0.58984 0.58984-0.88672 1.3086-0.88672 2.1484zm46.332 22.832c-2.8906 4.5859-7.6641 6.8789-14.324 6.8789-6.668 0-11.449-2.293-14.344-6.8789h2.2227c2.2383 3.1094 6.2734 4.6641 12.105 4.6641 5.8398 0 9.8789-1.5547 12.121-4.6641zm-8.4883-10.531c0 4.4219-1.3828 7.3945-4.1523 8.9219-1.4102 0.78516-2.9375 1.1758-4.5898 1.1758-2.0312 0-3.7148-0.51172-5.043-1.5352-1.3594-1.0469-2.2305-2.5586-2.6172-4.5352l3.1602-0.48828c0.60156 2.5898 2.0586 3.8828 4.3711 3.8828 1.9609 0 3.4219-0.76562 4.3711-2.3008 0.76953-1.2656 1.1523-2.9414 1.1523-5.0391 0-4.9141-1.7812-7.3672-5.3438-7.3672-0.64062 0-1.2266 0.085938-1.7539 0.25391l0.003906-9.8242h3.2539v7.0312c2.3477 0.15625 4.1758 1.2812 5.4883 3.375 1.1328 1.8086 1.6992 3.957 1.6992 6.4492zm37.246-12.141h-2.2188c-2.2461-3.1055-6.2891-4.6562-12.129-4.6562-5.8281 0-9.8633 1.5547-12.102 4.6602h-2.2266c2.8984-4.5898 7.6797-6.8828 14.355-6.8828 6.6602 0 11.438 2.293 14.324 6.8789z"/>
  <path d="m76.516 38.504c0-1.3828 0.48828-2.5664 1.4648-3.543 0.98828-0.97656 2.168-1.4648 3.543-1.4648 1.3984 0 2.582 0.48828 3.5586 1.4648 0.97656 0.97656 1.4648 2.1562 1.4648 3.543 0 1.3828-0.49219 2.5703-1.4805 3.5586-0.97656 0.97656-2.1562 1.4648-3.543 1.4648-1.3711 0-2.5508-0.48828-3.543-1.4648-0.97656-0.97266-1.4648-2.1602-1.4648-3.5586zm1.9727 0c0 0.84375 0.29688 1.5664 0.88672 2.1641 0.59766 0.58984 1.3203 0.88672 2.1641 0.88672 0.83203 0 1.5391-0.29688 2.1289-0.88672 0.60156-0.59766 0.90234-1.3203 0.90234-2.1641 0-0.83984-0.30078-1.5586-0.90234-2.1484-0.58984-0.60156-1.3008-0.90234-2.1289-0.90234-0.84375 0-1.5664 0.30078-2.168 0.90234-0.58984 0.58984-0.88672 1.3086-0.88672 2.1484zm15.098 29.711h-2.332c3.6016-5.7812 5.4062-11.566 5.4062-17.359 0-2.2656-0.25781-4.5078-0.77734-6.7344-0.41016-1.8086-0.98437-3.543-1.7188-5.2031-0.46875-1.082-1.4414-2.8906-2.9062-5.4219h2.332c2.2656 3.0234 3.9375 6.0625 5.0195 9.1055 0.92578 2.625 1.3906 5.3711 1.3906 8.2344 0 3.2539-0.625 6.3984-1.8789 9.4297-1.2383 3.0312-2.75 5.6797-4.5352 7.9453z"/>
 </g>
</svg>
